<svg width="483" height="240" viewBox="0 0 483 240" fill="none" xmlns="http://www.w3.org/2000/svg">
<path d="M1.81309 110.293C2.23975 111.36 2.79991 112.44 3.50658 113.52C4.21324 114.613 5.06642 115.707 6.07975 116.813C6.39975 117.16 6.73303 117.52 7.09303 117.88C7.89303 118.667 8.66637 119.36 9.42637 119.947C10.5864 120.853 11.7066 121.533 12.8399 121.987C13.9732 122.44 15.1065 122.653 16.2665 122.64C17.4265 122.613 18.6132 122.36 19.8532 121.853C20.9332 121.4 22.0665 120.773 23.2665 119.947C24.4665 119.133 25.7199 118.107 27.0532 116.907C28.9332 115.2 30.973 113.12 33.2264 110.64C35.4797 108.16 37.9464 105.28 40.6798 102C42.7598 99.4934 45.013 96.7467 47.4264 93.768C49.853 90.7867 52.4532 87.5628 55.2532 84.0961C58.4532 80.1294 61.9197 75.8454 65.693 71.2334C68.6797 67.5867 71.8397 63.7334 75.2131 59.6707C76.0264 58.6934 76.813 57.7467 77.5597 56.8281C80.9997 52.6401 83.8664 49.0601 86.2797 46.0548C88.6931 43.0494 90.6797 40.6174 92.3597 38.7227C94.133 36.7201 95.5732 35.3214 96.8532 34.4828C98.1199 33.6454 99.2265 33.368 100.32 33.612C101.56 33.8894 102.813 34.84 104.293 36.404C105.773 37.968 107.493 40.144 109.693 42.8734C110.48 43.8374 111.32 44.8694 112.226 45.9707C114.76 49.0227 117.16 51.9441 119.466 54.7387C122.626 58.5787 125.6 62.1814 128.373 65.5641C133.013 71.2307 137.147 76.2787 140.84 80.7801C144.533 85.2814 147.773 89.236 150.666 92.7174C156.8 100.093 161.333 105.347 165.053 109.187C168.76 113.027 171.666 115.44 174.546 117.147C177.2 118.72 179.84 119.68 183.066 120.587C183.146 120.613 183.24 120.64 183.32 120.667C186.373 121.493 189.506 121.92 192.693 121.96C196.04 121.987 199.44 121.6 202.88 120.787C204.026 120.507 205.173 120.187 206.333 119.813C208.786 118.88 210.787 118.053 212.653 117.013C215.16 115.64 217.44 113.907 220.28 111.093C223.12 108.28 226.533 104.4 231.293 98.7201C234.306 95.1134 237.866 90.7947 242.16 85.5707C242.266 85.4374 242.373 85.3027 242.48 85.168C246.333 80.484 249.853 76.1881 253.066 72.2521C257.053 67.3628 260.587 63.032 263.707 59.2067C266.827 55.3827 269.546 52.064 271.933 49.2014C274.48 46.1387 276.64 43.5961 278.493 41.5134C280.346 39.4307 281.893 37.8081 283.2 36.5814C284.44 35.4214 285.466 34.6174 286.36 34.1147C287.253 33.6121 288.013 33.4121 288.693 33.4614C289.653 33.5321 290.467 34.1054 291.32 35.0321C291.467 35.2001 291.627 35.3787 291.787 35.5694C292.373 36.2867 292.946 36.9827 293.533 37.6867C295.706 40.3134 297.813 42.8507 299.84 45.3001C301.867 47.7481 303.827 50.108 305.707 52.3787C309.76 57.2814 313.48 61.7814 316.893 65.9161C320.32 70.0521 323.426 73.8214 326.28 77.2641C331.413 83.4814 335.666 88.6214 339.213 92.8854C342.76 97.1467 345.6 100.533 347.92 103.253C353.053 109.293 355.6 112.013 357.52 113.653C358.853 114.787 359.88 115.387 361.28 116.227C362.28 116.813 363.293 117.36 364.307 117.853C367.2 119.28 370.133 120.307 373.053 121C375.987 121.693 378.893 122.027 381.746 122.067C385.84 122.12 389.8 121.52 393.453 120.413C397.106 119.307 400.466 117.68 403.333 115.653C403.4 115.6 403.466 115.56 403.533 115.507C405.413 114.173 407.4 112.373 409.92 109.733C412.493 107.04 415.613 103.453 419.72 98.5734C420.986 97.0667 422.346 95.4454 423.813 93.684C425.266 91.9227 426.84 90.0267 428.533 87.9814C431.453 84.444 434.733 80.4614 438.426 75.9721C442.133 71.4827 446.253 66.4868 450.853 60.9188C453.213 58.0801 455.68 55.0988 458.293 51.9548C458.493 51.7148 458.693 51.4747 458.893 51.2361C461.68 47.8974 464.466 44.7681 467.093 41.8054C470.066 38.4441 472.826 35.2987 475.133 32.3054C477.453 29.3121 479.32 26.4721 480.507 23.7227C481.107 22.3401 481.533 20.9801 481.76 19.6361C481.986 18.2907 482.026 16.9614 481.813 15.64C481.693 14.8094 481.453 13.9681 481.107 13.1281C480.773 12.2894 480.347 11.4521 479.84 10.6334C479.32 9.81341 478.733 9.01071 478.08 8.24005C477.426 7.46938 476.706 6.72941 475.946 6.03607C475.013 5.19341 474.013 4.41871 472.973 3.73738C471.92 3.05604 470.84 2.46674 469.733 1.9974C468.64 1.52807 467.52 1.17738 466.413 0.97071C465.32 0.764044 464.227 0.702749 463.173 0.810749C462.053 0.926749 460.947 1.22009 459.84 1.68542C458.733 2.14942 457.626 2.78539 456.493 3.58673C454.373 5.09339 452.173 7.18807 449.746 9.83341C447.333 12.4801 444.706 15.6788 441.733 19.3961C440.76 20.6068 439.746 21.8708 438.693 23.1908C436.773 25.5974 435.426 27.2987 434.066 28.9894C431.906 31.6734 429.72 34.3294 425.226 39.7454C423 42.428 420.2 45.7907 416.56 50.1694C412.92 54.5494 408.426 59.9454 402.813 66.6974C401.586 68.1707 400.32 69.708 398.986 71.312C397.746 72.7907 396.48 74.3268 395.146 75.9241C395.04 76.0548 394.947 76.1774 394.84 76.3054C393.187 78.2881 391.8 80.0654 390.587 81.6147C389.36 83.164 388.32 84.4854 387.36 85.5587C386.36 86.6734 385.466 87.5214 384.56 88.0747C383.92 88.4681 383.28 88.7121 382.6 88.7974C382.24 88.8414 381.92 88.86 381.587 88.8427C381.013 88.8134 380.453 88.672 379.813 88.3427C379.186 88.0134 378.48 87.4961 377.626 86.7174C376.746 85.9214 375.706 84.8494 374.426 83.4241C373.146 81.9988 371.627 80.2187 369.787 78.004C367.76 75.58 365.346 72.6321 362.426 69.0574C359.506 65.4828 356.093 61.2827 352.066 56.3507C349.066 52.6907 345.746 48.6281 342.026 44.1201C339.733 41.3347 337.293 38.3787 334.693 35.2427C333.28 33.5214 331.92 31.8507 330.613 30.2334C326.546 25.1734 323.013 20.6347 319.546 16.7147C316.08 12.7934 312.693 9.48941 308.933 6.90007C305.973 4.86407 302.786 3.26807 299.146 2.1614C297.32 1.60807 295.387 1.17605 293.32 0.87338C291.467 0.602713 289.573 0.473427 287.666 0.488093C284.453 0.51476 281.186 0.950765 277.893 1.82677C275.16 2.55343 272.413 3.58274 269.653 4.93074C269.12 5.23607 268.613 5.52007 268.133 5.79473C265.573 7.26273 263.8 8.43206 261.173 11.0561C258.533 13.6801 255.026 17.7587 248.96 25.0507C246.373 28.1681 243.32 31.8681 239.666 36.2974C239.093 36.9921 238.533 37.6774 237.973 38.3534C234.053 43.1027 230.52 47.4014 227.32 51.3027C222.88 56.7121 219.08 61.3427 215.826 65.3081C212.56 69.2734 209.853 72.5734 207.573 75.3147C205.28 78.0694 203.427 80.2627 201.907 82.0094C200.387 83.756 199.2 85.0561 198.24 86.0188C196.64 87.6148 195.653 88.2894 194.8 88.5548C194.013 88.8041 193.32 88.6934 192.346 88.6414C192.266 88.6374 192.187 88.6267 192.107 88.612C191.6 88.5214 191.04 88.2094 190.24 87.5067C189.453 86.8054 188.427 85.7134 186.987 84.0641C185.867 82.7694 184.48 81.1281 182.773 79.0587C181.053 76.9907 179 74.4961 176.533 71.4921C173.946 68.3627 170.92 64.6881 167.32 60.3574C166.587 59.4748 165.866 58.6067 165.16 57.7534C161.12 52.8667 157.493 48.4721 154.226 44.5081C148.866 37.9854 144.48 32.6388 140.826 28.2268C137.186 23.8148 134.293 20.3361 131.88 17.5534C125.346 9.97206 122.493 7.53477 118.44 5.36277C117.373 4.7961 116.227 4.24677 114.92 3.62943C110.387 1.8001 106.2 0.773419 102.307 0.380085C97.2266 -0.133248 92.6531 0.438718 88.5331 1.74538C84.4131 3.05205 80.7332 5.09209 77.4399 7.51876C71.7466 11.7081 67.1731 17.0427 63.3998 21.7147C61.9065 23.5521 60.5464 25.2867 59.2797 26.8094C56.6931 29.94 54.2132 32.9227 51.8399 35.7734C47.3732 41.1387 43.2932 46.0201 39.5732 50.4694C35.8532 54.9187 32.4932 58.9347 29.4399 62.5667C26.2532 66.3814 23.3998 69.7747 20.8798 72.8027C18.3464 75.8294 16.1332 78.4907 14.1865 80.8427C10.7732 84.9867 8.21303 88.172 6.29303 90.712C4.38637 93.2507 3.10652 95.1454 2.25319 96.7067C1.45319 98.1734 1.03975 99.3468 0.813086 100.493C0.599753 101.627 0.573242 102.747 0.573242 104.08C0.573242 105.08 0.666471 106.107 0.866471 107.147C1.06647 108.187 1.37309 109.24 1.81309 110.293Z" fill="white"/>
<path d="M482 133.28C481.827 132.12 481.48 130.934 480.973 129.734C480.453 128.547 479.787 127.36 478.987 126.214C478.187 125.08 477.253 123.987 476.2 123C475.16 122.014 474 121.107 472.76 120.36C471.88 119.814 470.947 119.347 469.973 118.974C469 118.6 468 118.307 466.973 118.12C465.933 117.947 464.88 117.867 463.8 117.92C462.72 117.974 461.627 118.147 460.52 118.454C459.4 118.774 458.56 118.96 457.613 119.48C456.666 119.987 455.6 120.814 454 122.4C452.84 123.56 451.413 125.12 449.546 127.24C447.68 129.374 445.373 132.067 442.493 135.507C439.92 138.574 436.893 142.214 433.293 146.56C429.68 150.907 425.507 155.96 420.64 161.84C417.56 165.574 414.2 169.64 410.546 174.054C406.88 178.48 402.92 183.267 398.613 188.454C396.8 190.64 394.92 192.907 392.987 195.24C391.04 197.574 389.04 199.987 386.973 202.467C386.64 202.867 386.307 203.267 385.973 203.68C385.653 204.054 385.346 204.4 385.026 204.694C384.32 205.347 383.6 205.747 382.8 205.854C382.24 205.92 381.653 205.84 380.987 205.587C380.333 205.334 379.6 204.92 378.787 204.307C377.6 203.44 376.213 202.174 374.573 200.454C372.92 198.734 371 196.56 368.733 193.88C366.173 190.854 363.187 187.187 359.64 182.787C356.093 178.4 352 173.267 347.24 167.307C344.2 163.52 340.906 159.4 337.293 154.92C336.92 154.454 336.547 153.987 336.173 153.52C332.093 148.44 328.507 144.014 325.253 140.147C320.92 134.987 317.16 130.854 313.587 127.6C310.013 124.347 306.613 121.974 303 120.334C300.307 119.12 297.493 118.307 294.387 117.84C291.707 117.44 288.8 117.294 285.573 117.374C285.133 117.414 284.706 117.454 284.28 117.494C281.187 117.814 278.44 118.347 275.933 119.094C273.427 119.854 271.146 120.84 269.013 122.054C265.32 124.147 262.04 126.947 258.64 130.494C255.253 134.04 251.746 138.334 247.626 143.414C247.306 143.814 246.987 144.214 246.653 144.627C242.76 149.427 239.16 153.854 235.84 157.934C232.187 162.414 228.867 166.467 225.853 170.16C219.72 177.627 214.826 183.52 210.893 188.187C206.96 192.84 203.986 196.267 201.693 198.76C199 201.72 197.253 203.4 196.013 204.347C194.773 205.294 194.04 205.507 193.36 205.534C193.013 205.534 192.68 205.494 192.293 205.467C191.906 205.454 191.507 205.307 190.907 204.867C190.107 204.267 188.96 203.12 187.093 201C185.786 199.52 184.12 197.56 181.973 194.987C179.813 192.427 177.173 189.227 173.907 185.267C171.187 181.987 168.053 178.187 164.4 173.774C160.76 169.36 156.6 164.334 151.867 158.614C149.987 156.347 148.013 153.974 145.946 151.48C144.053 149.187 142.28 146.96 140.573 144.814C136.867 140.147 133.507 135.84 130.067 132.08C125.947 127.574 121.72 123.867 116.64 121.28C116.467 121.2 116.307 121.12 116.133 121.04C111.187 118.614 105.573 117.374 99.9598 117.307C96.0798 117.254 92.1999 117.747 88.5332 118.774C86.2932 119.4 84.1333 120.227 82.1067 121.24C80.72 121.947 79.4265 122.72 78.1999 123.547C72.8265 127.174 68.8532 131.947 64.8132 136.88C64.0265 137.84 63.2264 138.814 62.4264 139.787C58.9864 143.947 55.6931 147.867 52.5598 151.6C48.2798 156.68 44.2933 161.387 40.5866 165.747C36.8799 170.107 33.4398 174.12 30.2798 177.827C25.3732 183.56 21.1198 188.574 17.4798 192.987C13.8265 197.387 10.7999 201.2 8.33322 204.56C6.70655 206.774 5.33322 208.8 4.19989 210.654C3.06656 212.507 2.17327 214.214 1.51994 215.787C0.999941 217.04 0.626607 218.214 0.386607 219.334C0.159941 220.44 0.0666594 221.507 0.106659 222.534C0.133326 223.334 0.253326 224.107 0.439993 224.854C0.639993 225.614 0.906607 226.36 1.25327 227.107C1.59994 227.854 2.02656 228.6 2.53322 229.347C3.02656 230.094 3.59999 230.84 4.23999 231.614C5.05333 232.574 5.97322 233.56 6.99989 234.587C7.37322 234.974 7.77333 235.347 8.17333 235.734C8.90666 236.334 9.61333 236.854 10.3067 237.307C11.52 238.094 12.6664 238.654 13.8264 238.987C14.9731 239.32 16.1198 239.414 17.2798 239.28C18.4132 239.134 19.5866 238.774 20.7999 238.174C22.0266 237.56 23.3065 236.72 24.6798 235.627C26.0132 234.574 27.44 233.28 28.9733 231.734C30.52 230.187 32.1733 228.414 33.9733 226.374C36.7733 223.2 39.9331 219.427 43.5598 215.014C47.1864 210.6 51.2798 205.534 55.9598 199.787C59.2664 195.72 62.8665 191.32 66.8132 186.56C67.4932 185.734 68.2 184.894 68.9067 184.04C72.3467 179.894 75.3465 176.227 77.9999 172.974C81.4932 168.707 84.3598 165.16 86.7465 162.254C89.1332 159.334 91.0531 157.054 92.6264 155.307C94.4264 153.32 95.7865 152.027 96.9332 151.254C98.0932 150.494 99.0264 150.267 99.9598 150.427C100.493 150.52 101.027 150.734 101.6 151.054C101.813 151.16 102.32 151.654 103.08 152.467C104.186 153.654 105.853 155.534 107.893 157.894C110.253 160.627 113.133 164.014 116.28 167.76C119.44 171.507 122.867 175.614 126.32 179.774C130.427 184.72 134.587 189.734 138.387 194.334C142.173 198.92 145.613 203.107 148.293 206.36C152.106 211 154.386 213.787 153.96 213.267C155.466 215.107 156.84 216.774 158.08 218.28C161.933 222.92 164.653 226.08 167.173 228.467C170.48 231.627 173.413 233.467 178.013 235.614C178.426 235.787 178.826 235.934 179.226 236.094C183.88 237.814 188.547 238.72 193.12 238.814C195.987 238.867 198.813 238.6 201.573 238.014C204.48 237.387 206.973 236.68 209.36 235.6C213.88 233.56 218.067 230.2 224.187 223.627C227.32 220.254 230.973 216.04 235.426 210.72C239.88 205.387 245.147 198.96 251.52 191.174C254.613 187.4 257.973 183.307 261.626 178.867C265.28 174.414 269.227 169.614 273.507 164.454C274.907 162.747 276.347 161 277.84 159.214C278.107 158.88 278.387 158.547 278.64 158.227C280.68 155.747 282.16 153.827 283.493 152.507C284.186 151.827 284.84 151.307 285.507 150.974C286.16 150.64 286.84 150.48 287.587 150.507C288.027 150.534 288.493 150.627 289 150.774C289.213 150.84 289.4 150.894 289.587 150.96C290.093 151.134 290.546 151.387 291.48 152.307C292.133 152.96 293.013 153.947 294.307 155.454C295.613 156.974 297.32 159.027 299.626 161.827C301.866 164.547 304.68 167.974 308.226 172.294C311.773 176.614 316.04 181.827 321.226 188.134C322.173 189.294 323.16 190.48 324.173 191.72C327.707 196.027 330.866 199.867 333.693 203.28C337.533 207.947 340.76 211.84 343.507 215.12C350.4 223.307 354.306 227.627 357.36 230.307C360.426 232.974 362.653 234.014 366.16 235.667C366.2 235.68 366.24 235.694 366.28 235.707C370.426 237.387 374.293 238.387 377.907 238.84C381.56 239.307 384.973 239.2 388.16 238.64C391.333 238.08 394.28 237.08 397.067 235.734C399.84 234.387 402.44 232.694 404.893 230.774C408.613 227.84 412.013 224.374 415.2 220.747C418.387 217.12 421.36 213.32 424.253 209.747C425.093 208.694 425.947 207.654 426.787 206.64C430.027 202.747 433.08 199.08 435.96 195.627C439.72 191.134 443.173 187 446.36 183.2C451.28 177.307 455.56 172.214 459.253 167.774C462.96 163.347 466.093 159.574 468.72 156.334C471.307 153.16 473.413 150.507 475.133 148.254C476.853 145.987 478.187 144.134 479.2 142.547C480.6 140.347 481.387 138.694 481.787 137.254C482.2 135.814 482.2 134.587 482 133.28Z" fill="white"/>
</svg>
