<svg width="502" height="407" viewBox="0 0 502 407" fill="none" xmlns="http://www.w3.org/2000/svg">
<path d="M501.16 91.3336C499.92 81.0669 496.999 71.2002 492.679 62.0136C488.386 52.8802 482.746 44.4136 476.039 36.8669C469.386 29.3736 461.706 22.7869 453.279 17.3469C444.799 11.8536 435.573 7.53364 425.92 4.62698C416.146 1.68031 405.946 0.186951 395.613 0.400285C385.546 0.613618 375.36 2.44028 365.36 6.13362C356.253 9.49362 347.293 14.4002 338.706 21.0136C331.359 26.6936 324.293 33.6137 317.626 41.9203C314.773 45.4803 311.986 49.2936 309.293 53.3736C308.08 55.2136 306.879 57.107 305.706 59.0537C304.453 61.1203 303.199 63.2536 301.973 65.4403C297.693 73.0403 293.573 81.2936 289.599 90.0403C285.999 98.0003 282.519 106.387 279.173 115.094C276.039 123.28 273.013 131.747 270.106 140.414C267.319 148.774 264.639 157.304 262.079 165.944C259.559 174.423 257.159 183.004 254.866 191.618C252.639 199.97 250.533 208.348 248.52 216.692C247.84 211.999 246.946 206.892 245.879 201.452C244.973 196.856 243.92 192.023 242.76 187.011C241.56 181.872 240.226 176.546 238.773 171.084C237.493 166.292 236.119 161.4 234.666 156.443C232.679 149.694 230.533 142.827 228.226 135.947C226 129.267 223.626 122.574 221.12 115.96C218.6 109.254 215.946 102.64 213.173 96.187C210.293 89.467 207.293 82.9336 204.173 76.6802C200.799 69.9069 197.306 63.4803 193.693 57.5203C189.506 50.587 185.186 44.3069 180.76 38.8802C177.506 34.8936 174.186 31.3603 170.839 28.3736C168.399 26.2003 165.933 24.1736 163.426 22.2802C156.813 17.2802 149.999 13.227 143.079 10.0537C135.519 6.587 127.839 4.18695 120.146 2.73362C112.053 1.21362 103.959 0.747003 95.9995 1.25367C87.9062 1.77367 79.9595 3.29359 72.3195 5.70692C64.7062 8.12026 57.3995 11.4136 50.5648 15.4936C43.7142 19.587 37.3275 24.4669 31.5608 30.0136C25.8115 35.5602 20.6795 41.7869 16.3168 48.5736C12.0315 55.2536 8.49279 62.4803 5.84479 70.1603C3.29146 77.5736 1.56879 85.4003 0.80612 93.5736C0.51012 96.7203 0.355469 99.9337 0.355469 103.187C0.355469 108 0.751422 112.787 1.47409 117.494C2.70742 125.534 4.90753 133.334 7.81419 140.627C10.9302 148.427 14.8528 155.64 19.2408 161.907C22.2301 166.176 25.4355 170.01 28.7529 173.291C31.1475 175.66 34.1755 177.208 37.3755 177.786C39.9755 178.254 42.6888 178.082 45.2715 177.174C45.8862 176.956 46.4648 176.703 47.0102 176.416C47.5568 176.13 48.0688 175.81 48.5501 175.462C49.0315 175.114 49.4808 174.736 49.9008 174.335C50.3208 173.935 50.7114 173.51 51.0741 173.064C51.7168 172.275 52.2702 171.424 52.7422 170.534C53.2142 169.643 53.5995 168.714 53.9195 167.77C54.2395 166.827 54.4795 165.868 54.6661 164.919C54.8395 163.968 54.9594 163.028 55.0128 162.12C55.1594 159.774 54.9994 157.967 54.5461 156.411C53.3048 152.054 49.9021 149.667 45.2408 142.88C44.8381 142.294 44.4262 141.68 44.0048 141.027C41.4008 136.974 39.2808 132.894 37.5941 128.84C35.4141 123.587 33.9674 118.347 33.1741 113.174C32.3128 107.574 32.2168 102.054 32.7835 96.6936C33.3701 91.147 34.6675 85.7737 36.5582 80.6537C38.4582 75.507 40.9541 70.627 43.9354 66.0936C46.9261 61.547 50.3995 57.347 54.2395 53.587C58.1861 49.7203 62.5195 46.3203 67.1061 43.4669C71.1061 40.9736 75.3061 38.9069 79.6128 37.3336C80.4394 37.0269 81.2662 36.7469 82.0928 36.4802C87.4128 34.7602 92.7595 33.8003 98.0395 33.4936C103.479 33.1736 108.853 33.5603 114.093 34.5736C119.426 35.6003 124.613 37.2803 129.586 39.5069C134.653 41.7869 139.479 44.6536 143.973 48.0136C147.173 50.3869 150.213 53.0136 153.053 55.8669C154.066 56.8936 155.08 57.9602 156.093 59.0802C159.746 63.1336 163.359 67.8536 166.999 73.6403C170.053 78.4669 173.133 84.0269 176.279 90.5469C178.866 95.8802 181.506 101.854 184.213 108.587C186.493 114.24 188.826 120.427 191.239 127.227C192.999 132.227 194.813 137.547 196.666 143.227C196.986 144.2 197.306 145.187 197.626 146.187C199.506 152.054 201.426 158.316 203.399 164.972C205.053 170.558 206.746 176.43 208.479 182.603C210.733 190.591 213.066 199.083 215.506 208.116C217.813 216.622 220.213 225.61 222.733 235.103C226.493 249.255 230.52 264.535 234.893 281.046C234 285.923 233.146 290.72 232.333 295.414C230.893 303.842 229.586 311.951 228.439 319.634C228.333 320.395 228.239 321.136 228.146 321.886C226.786 332.327 226.173 341.611 226.146 349.844C226.133 353.61 226.253 357.147 226.479 360.48C226.853 365.928 227.533 370.814 228.466 375.178C232.506 394.2 241.306 403.331 250.413 406.035C257.386 408.103 264.533 406.416 269.879 402.531C277.266 397.166 280.68 387.698 282.253 378.706C283.28 372.848 283.666 366.37 283.546 359.554C283.466 355.275 283.2 350.864 282.76 346.392C282.36 342.412 281.839 338.384 281.213 334.356C280.679 331.034 280.093 327.711 279.426 324.418C277.826 316.398 275.853 308.554 273.693 301.288C271.68 294.488 269.506 288.198 267.32 282.751C267.8 280.356 268.28 277.903 268.786 275.388C270.386 267.466 272.186 258.974 274.16 250.092C275.96 241.986 277.919 233.556 280.013 224.944C282.013 216.748 284.133 208.387 286.373 199.979C288.573 191.746 290.893 183.467 293.306 175.256C295.746 167.016 298.279 158.847 300.933 150.854C303.639 142.654 306.466 134.627 309.399 126.92C312.493 118.787 315.693 111 318.999 103.72C322.613 95.747 326.359 88.3603 330.213 81.7736C332.106 78.5469 334.026 75.4936 335.96 72.6669C338.48 69.0136 341.079 65.5469 343.773 62.3069C348.626 56.4803 353.799 51.3736 359.306 47.1603C364.853 42.9203 370.746 39.5736 377.013 37.2936C383.119 35.067 389.6 33.8536 396.453 33.8003C396.613 33.8003 396.773 33.787 396.933 33.787C403.693 33.787 410.16 34.7203 416.253 36.427C423.08 38.3336 429.426 41.2136 435.173 44.8669C441.199 48.7069 446.573 53.3869 451.146 58.7069C455.733 64.0403 459.519 70.0136 462.346 76.3736C465.093 82.5603 466.933 89.1203 467.746 95.8403C468.519 102.28 468.36 108.854 467.12 115.414C465.92 121.774 463.706 128.107 460.386 134.24C457.68 139.2 454.266 144.027 450.053 148.627C449.186 149.574 448.413 150.48 447.72 151.374C445.906 153.734 444.666 155.974 444.106 158.247C443.813 159.43 443.706 160.619 443.8 161.835C443.893 163.051 444.186 164.292 444.693 165.578C445.2 166.864 445.906 168.194 446.853 169.587C447.786 170.982 448.96 172.438 450.36 173.976C450.546 174.18 450.72 174.382 450.92 174.588C451.786 175.519 452.626 176.355 453.426 177.09C454.44 178.012 455.413 178.772 456.36 179.354C457.333 179.942 458.279 180.347 459.239 180.55C460.199 180.754 461.173 180.756 462.2 180.542C464.76 180 467.586 178.071 471.133 174.495C473.013 172.596 475.093 170.239 477.453 167.362C481.866 161.787 485.613 156.16 488.76 150.52C494.053 141.027 497.626 131.48 499.666 122.067C501.946 111.6 502.346 101.28 501.16 91.3336Z" fill="white"/>
</svg>
