<svg width="410" height="351" viewBox="0 0 410 351" fill="none" xmlns="http://www.w3.org/2000/svg">
<path d="M34.0929 145.641C34.3462 143.694 34.7464 141.734 35.3064 139.747C36.1597 136.854 37.1063 134.014 38.133 131.214C40.1863 125.641 42.5864 120.241 45.3064 115.027C45.5064 114.641 45.7197 114.254 45.9197 113.867C52.7197 108.641 61.2395 104.774 70.2262 103.121C78.0529 101.681 86.2264 101.907 93.9197 104.401C98.5197 105.881 102.933 108.174 107 111.387C108.24 112.374 109.453 113.441 110.626 114.601C112.986 116.934 115.08 119.427 116.893 122.054C119.746 126.187 121.906 130.627 123.36 135.201C124.893 140.081 125.613 145.107 125.48 150.094C125.346 155.134 124.333 160.134 122.413 164.894C120.6 169.347 118 173.574 114.546 177.414C113.373 178.721 112.106 180.001 110.733 181.214C108.36 183.307 105.88 185.094 103.333 186.591C99.0263 189.117 94.5063 190.815 89.933 191.779C85.1863 192.775 80.373 192.989 75.6663 192.51C70.853 192.019 66.1464 190.805 61.7197 188.979C57.2797 187.145 53.133 184.689 49.453 181.721C45.8264 178.787 42.6663 175.361 40.1463 171.547C37.6796 167.801 35.8397 163.667 34.7864 159.254C33.7464 154.947 33.4662 150.387 34.0929 145.641ZM12.0929 189.649C16.6529 196.926 22.1996 203.091 28.4129 208.159C34.8529 213.407 42.0263 217.473 49.6129 220.346C57.2663 223.254 65.3463 224.95 73.4796 225.423C81.6796 225.901 89.933 225.133 97.9197 223.133C105.866 221.141 113.533 217.914 120.56 213.455C127.386 209.121 133.626 203.618 138.933 196.946C143.84 190.783 147.96 183.626 151.04 175.467C151.493 174.254 151.946 173.014 152.36 171.761C154.386 164.787 155.52 158.014 155.853 151.481C156.306 142.894 155.373 134.721 153.32 127.121C151.106 118.934 147.6 111.387 143.08 104.654C140.733 101.147 138.106 97.8539 135.253 94.8139C132.466 91.8272 129.453 89.0806 126.266 86.5873C119.786 81.5073 112.56 77.4673 104.933 74.654C100.853 73.1473 96.6663 71.9872 92.4129 71.2006C88.9329 70.5606 85.4262 70.174 81.8929 70.054C85.2262 67.3073 88.6663 64.6939 92.2129 62.2273C97.2129 58.7739 102.4 55.6272 107.76 52.8139C113.253 49.9205 118.92 47.3739 124.706 45.2006C126.786 44.4272 128.866 43.6939 130.973 43.0139C134.493 41.8672 138.24 40.8139 142.173 39.8406C147.92 38.4272 154.08 37.1872 160.533 36.1472C166.586 35.1739 172.893 34.3739 179.386 33.7472C185.6 33.1472 191.986 32.7072 198.453 32.4406C204.786 32.1872 211.2 32.0806 217.613 32.1606C224 32.2273 230.4 32.4672 236.746 32.8805C243.173 33.3072 249.533 33.8939 255.76 34.6805C262.2 35.4805 268.493 36.4806 274.546 37.6939C280.96 38.9606 287.106 40.454 292.92 42.1873C298.386 43.8273 303.546 45.6673 308.32 47.7206C309.066 47.9606 309.813 48.2272 310.56 48.4805C316.386 50.5605 321.986 53.1872 327.346 56.2805C332.6 59.2939 337.613 62.7473 342.413 66.5206C347.066 70.1873 351.506 74.1739 355.746 78.3606C359.893 82.4806 363.84 86.8006 367.586 91.2406C369.44 93.4539 371.253 95.6805 373.013 97.9472C373.493 98.5739 373.973 99.2006 374.453 99.8273C375.84 101.641 376.96 103.121 378 104.294C380.253 106.854 382.186 108.041 385.88 108.334C386.48 108.387 387.146 108.414 387.866 108.441C388.573 108.454 389.333 108.454 390.133 108.441C390.92 108.427 391.746 108.387 392.573 108.334C393.413 108.281 394.266 108.201 395.12 108.094C396.306 107.961 397.506 107.774 398.64 107.521C399.786 107.281 400.893 106.974 401.893 106.614C402.906 106.241 403.826 105.814 404.613 105.321C405.386 104.827 406.04 104.254 406.52 103.601C407.373 102.427 407.48 100.174 406.773 97.1206C405.933 93.4273 403.906 88.5472 400.6 82.9472C398.493 79.3605 395.84 75.4805 392.64 71.4139C388.52 66.1739 383.466 60.6539 377.426 55.0805C372.386 50.4272 366.653 45.7606 360.2 41.2006C354.56 37.2272 348.373 33.3473 341.613 29.654C335.56 26.3606 329.04 23.2273 322.04 20.3206C315.706 17.6806 308.973 15.2273 301.826 13.0273C300.106 12.4806 298.36 11.9606 296.586 11.454C291.773 10.0806 286.6 8.81386 281.173 7.68053C274.573 6.28053 267.586 5.06725 260.293 4.06725C253.52 3.12058 246.493 2.36058 239.306 1.80058C232.426 1.25392 225.4 0.893968 218.293 0.720635C211.333 0.560635 204.306 0.587198 197.28 0.813864C190.253 1.04053 183.226 1.48064 176.266 2.12064C169.173 2.7873 162.16 3.69394 155.293 4.82728C148.12 6.01394 141.12 7.48061 134.36 9.22728C128.626 10.7073 123.08 12.3873 117.76 14.2939C116.36 14.8006 114.986 15.3073 113.613 15.8273C106.626 18.4673 100.053 21.294 93.853 24.3206C87.0797 27.6273 80.7595 31.1739 74.8262 34.9472C68.4529 39.0139 62.5464 43.3473 57.053 47.9606C51.3064 52.7739 46.0131 57.8806 41.1064 63.2939C36.1731 68.7339 31.6395 74.4806 27.4262 80.5206C23.3329 86.3873 19.5595 92.5472 16.0262 99.0006C14.9729 100.921 13.9463 102.867 12.933 104.841C10.5596 109.467 8.39954 114.134 6.55954 118.854C3.61287 126.374 1.47959 134.054 0.61292 142.001C-0.253746 149.947 0.159691 158.161 2.31969 166.747C3.19969 170.307 4.38641 173.921 5.90641 177.614C7.67974 181.921 9.75954 185.925 12.0929 189.649Z" fill="white"/>
<path d="M377.973 207.773C377.893 208.344 377.799 208.911 377.666 209.468C376.546 214.163 375.132 218.772 373.466 223.285C372.106 226.941 370.572 230.533 368.879 234.055C364.146 238.605 358.239 242.399 351.719 245.029C342.626 248.695 332.346 250.103 322.399 248.156C315.879 246.879 309.492 244.155 303.692 239.679C302.026 238.393 300.399 236.967 298.839 235.384C296.906 233.423 295.146 231.289 293.573 229.011C290.826 225.033 288.679 220.612 287.239 215.885C285.839 211.288 285.106 206.403 285.159 201.355C285.172 201.203 285.173 201.052 285.186 200.9C285.466 195.764 286.626 190.789 288.559 186.168C290.506 181.48 293.266 177.16 296.706 173.387C300.026 169.774 303.972 166.667 308.466 164.267C312.546 162.08 317.066 160.48 321.973 159.587C326.386 158.774 331.106 158.534 336.092 158.96C337.492 159.094 338.919 159.267 340.359 159.494C343.719 160.04 347.013 161.04 350.173 162.413C354.533 164.307 358.612 166.92 362.212 170.094C365.666 173.134 368.666 176.653 371.066 180.533C373.479 184.429 375.266 188.668 376.266 193.098C377.279 197.634 378.613 202.909 377.973 207.773ZM408.732 187.304C407.186 178.68 404.172 170.76 400.026 163.68C395.746 156.36 390.253 149.933 383.906 144.547C377.613 139.213 370.479 134.894 362.853 131.72C355.293 128.587 347.253 126.587 339.039 125.854C330.826 125.12 322.466 125.667 314.279 127.613C306.359 129.493 298.612 132.693 291.346 137.347C286.559 140.4 281.986 144.08 277.692 148.427C276.226 149.92 274.652 151.733 273.012 153.84C268.852 159.24 264.386 166.574 260.892 175.16C257.959 182.36 255.706 190.469 254.879 199.075C254.132 206.976 254.572 215.301 256.799 223.751C258.786 231.284 262.186 238.915 267.412 246.433C270.252 250.524 273.626 254.581 277.612 258.569C279.746 260.703 281.986 262.695 284.319 264.545C290.346 269.339 296.972 273.164 303.946 275.938C309.386 278.104 315.026 279.628 320.759 280.467C324.066 280.951 327.386 281.207 330.719 281.227C326.253 284.792 321.533 288.144 316.573 291.249C311.439 294.461 306.053 297.417 300.439 300.091C294.879 302.741 289.079 305.115 283.092 307.189C282.012 307.561 280.933 307.928 279.839 308.28C275.373 309.727 270.559 311.035 265.466 312.204C259.599 313.548 253.372 314.708 246.879 315.672C240.746 316.581 234.386 317.315 227.866 317.873C221.572 318.411 215.146 318.783 208.653 318.983C204.906 319.099 201.132 319.16 197.346 319.16C194.652 319.16 191.999 319.131 189.386 319.079C182.679 318.944 176.279 318.636 170.159 318.177C163.452 317.675 157.092 316.987 151.066 316.138C144.412 315.2 138.146 314.067 132.253 312.763C125.706 311.317 119.613 309.664 113.919 307.841C107.573 305.809 101.732 303.569 96.3458 301.172C90.3191 298.488 84.8659 295.611 79.9059 292.613C74.3326 289.247 69.3993 285.731 64.9726 282.169C61.1993 279.127 57.8125 276.053 54.7325 273.012C53.7192 272.004 52.7457 271.025 51.8257 270.073C46.8124 264.883 43.2392 260.53 40.4658 256.932C37.8258 253.499 35.9326 250.756 34.2393 248.64C32.6126 246.615 31.1858 245.157 29.4791 244.221C28.8524 243.872 27.9991 243.584 27.0124 243.361C26.0124 243.139 24.8659 242.983 23.6393 242.898C22.4126 242.812 21.0924 242.799 19.7458 242.861C18.3991 242.924 17.0257 243.064 15.6924 243.285C14.6924 243.453 13.7057 243.667 12.7591 243.929C11.8257 244.192 10.9326 244.504 10.1059 244.868C9.2926 245.231 8.54593 245.646 7.90593 246.115C7.2526 246.583 6.70573 247.105 6.29239 247.684C5.45239 248.824 5.29255 250.974 5.85255 253.894C6.82588 258.918 9.95916 266.225 15.5992 274.605C19.2658 280.064 23.9991 285.975 29.8924 292.008C34.6657 296.899 40.1992 301.867 46.5325 306.736C52.0258 310.947 58.1059 315.08 64.8393 319.026C70.7993 322.527 77.2658 325.88 84.2658 329.003C90.5592 331.813 97.2925 334.435 104.453 336.816C107.626 337.869 110.879 338.881 114.226 339.833C117.692 340.821 121.346 341.754 125.146 342.626C131.719 344.138 138.759 345.464 146.119 346.585C152.893 347.617 159.946 348.471 167.199 349.127C174.092 349.751 181.159 350.199 188.332 350.445C195.306 350.687 202.386 350.739 209.466 350.588C216.519 350.437 223.586 350.081 230.599 349.508C237.719 348.927 244.786 348.125 251.706 347.075C258.906 345.983 265.946 344.627 272.759 342.989C279.799 341.299 286.599 339.309 293.053 336.996C293.293 336.908 293.533 336.819 293.773 336.731C300.826 334.18 307.466 331.442 313.732 328.51C320.586 325.302 327.012 321.865 333.012 318.196C339.506 314.233 345.532 310.002 351.132 305.498C357.026 300.768 362.452 295.738 367.479 290.404C372.559 285.019 377.239 279.324 381.586 273.316C385.813 267.467 389.706 261.319 393.359 254.873C394.906 252.121 396.412 249.317 397.879 246.457C399.906 242.504 401.652 238.611 403.132 234.782C406.212 226.868 408.159 219.231 409.146 211.923C410.319 203.219 410.106 194.982 408.732 187.304Z" fill="white"/>
</svg>
