<svg width="473" height="417" viewBox="0 0 473 417" fill="none" xmlns="http://www.w3.org/2000/svg">
<path d="M441.107 260.547C440.827 264.214 440.253 267.881 439.386 271.454C438.026 277.054 435.96 282.427 433.186 287.254C432.413 288.614 431.573 289.921 430.666 291.187C427.773 295.294 424.28 298.881 420.2 301.694C420.186 301.707 420.16 301.721 420.146 301.734C418.813 302.534 417.333 303.281 415.707 303.974C411.52 305.761 406.44 307.094 400.88 307.547C399.413 307.667 397.907 307.734 396.373 307.721C390.653 307.694 384.56 306.694 378.507 304.294C377.307 303.827 376.106 303.294 374.92 302.707C369.12 299.867 363.906 295.681 359.333 290.654C352.733 283.427 347.48 274.467 343.707 265.281C340.68 257.894 338.613 250.387 337.6 243.507C340.52 239.054 343.6 234.907 346.893 231.147C351.986 225.334 357.613 220.427 364.026 216.681C370.066 213.161 376.8 210.667 384.426 209.427C390.906 208.374 398.04 208.227 405.946 209.107C408.173 209.361 410.347 209.721 412.44 210.187C416.187 211.041 419.96 212.294 423.546 214.521C428.053 217.334 432.24 221.721 435.653 228.867C436.28 230.161 436.866 231.534 437.426 233.014C439.373 238.094 440.573 243.627 441.066 249.321C441.386 253.027 441.4 256.787 441.107 260.547ZM174.413 244.894C174.013 248.094 173.613 251.387 173.2 254.721C173.08 255.667 172.96 256.614 172.84 257.574C172.72 258.521 172.6 259.467 172.48 260.414C172.373 261.374 172.253 262.321 172.133 263.267C172.013 264.214 171.893 265.161 171.773 266.107C171.653 267.134 171.533 268.107 171.413 269.067C172.146 262.734 172.946 256.121 173.8 249.294C174.333 245.081 174.893 240.787 175.466 236.427C175.133 239.134 174.773 241.974 174.413 244.894ZM166.6 311.561C166.64 311.267 166.667 310.974 166.707 310.667C166.707 310.667 166.707 310.681 166.707 310.694C166.667 310.987 166.64 311.267 166.6 311.561ZM166.04 316.361C166.08 316.001 166.12 315.654 166.173 315.294C166.173 315.307 166.16 315.321 166.16 315.334C166.12 315.681 166.08 316.014 166.04 316.361ZM165.48 320.961C165.546 320.494 165.6 320.027 165.666 319.534C165.653 319.561 165.653 319.574 165.653 319.601C165.6 320.067 165.533 320.507 165.48 320.961ZM163.946 331.841C163.946 331.814 163.96 331.787 163.96 331.747C163.96 331.761 163.96 331.761 163.96 331.761C163.946 331.787 163.946 331.814 163.946 331.841ZM163.373 334.761C163.387 334.707 163.4 334.654 163.413 334.587C163.413 334.587 163.413 334.587 163.413 334.601C163.4 334.654 163.387 334.707 163.373 334.761ZM472.28 247.267C471.586 236.054 468.933 225.107 464.24 215.307C464.133 215.081 464.027 214.841 463.907 214.601C458.907 204.441 451.68 195.547 442.107 188.921C438.227 186.241 433.96 183.921 429.293 182.054C428.6 181.787 427.906 181.521 427.213 181.254C421.773 179.254 415.986 177.787 410.013 176.921C399.426 175.387 388.52 175.721 377.84 177.947C367.427 180.107 357.226 184.067 347.72 189.854C342.333 193.121 337.186 196.974 332.333 201.414C332.16 199.307 332 197.201 331.853 195.094C331.626 191.787 331.413 188.494 331.226 185.227C330.773 177.454 330.44 169.801 330.133 162.254C329.826 154.321 329.573 146.522 329.28 138.893C328.986 130.79 328.653 122.878 328.213 115.194C327.733 106.883 327.107 98.8366 326.24 91.1046C325.28 82.5032 324 74.2913 322.253 66.5259C320.253 57.5513 317.613 49.1793 314.12 41.5033C310.093 32.6406 304.92 24.7046 298.226 17.8539C298.093 17.7126 297.946 17.5766 297.8 17.4366C290.48 10.1193 280.84 4.91661 270.28 2.29527C260.573 -0.114061 250.107 -0.34336 239.973 1.96331C237.067 2.62331 234.186 3.48592 231.36 4.57125C224.586 7.17525 218.426 10.8659 212.786 15.4899C205.92 21.1193 199.84 28.1419 194.413 36.3126C189.88 43.1246 185.8 50.7313 182.08 58.9966C178.826 66.238 175.866 73.9806 173.12 82.1313C170.613 89.5673 168.293 97.3406 166.133 105.379C165.24 108.713 164.373 112.098 163.52 115.517C163.346 114.658 163.186 113.798 163.013 112.938C162.826 112.005 162.64 111.071 162.453 110.138C161.786 106.883 161.106 103.627 160.386 100.381C159.72 97.334 159.026 94.298 158.293 91.2806C157.133 86.4726 155.906 81.7153 154.56 77.0539C153.226 72.3953 151.8 67.8339 150.24 63.4086C148.613 58.7606 146.853 54.2673 144.933 49.978C142.986 45.6353 140.88 41.5033 138.586 37.6339C135.973 33.2179 133.12 29.1393 129.986 25.4873C126.333 21.2206 122.28 17.5299 117.8 14.5366C112.973 11.3139 107.64 8.90864 101.707 7.46064C96.5999 6.21264 91.0665 5.67927 85.0399 5.96461C83.1999 6.05261 81.3198 6.20726 79.3998 6.44859C75.9198 7.01926 72.5063 7.85927 69.1597 8.92327C64.4663 10.4166 59.893 12.3646 55.4797 14.6806C51.333 16.854 47.3064 19.3526 43.413 22.1033C39.7197 24.7166 36.133 27.554 32.6797 30.5606C29.3464 33.4713 26.1197 36.5379 23.0263 39.7019C19.9597 42.8299 17.0264 46.0526 14.1998 49.3193C11.9598 51.922 9.79982 54.55 7.71982 57.1806C7.03982 58.0633 6.39977 58.9139 5.79977 59.7393C2.63977 64.1086 0.613048 67.7033 0.146382 71.0179C-0.133618 73.1019 0.199819 75.0766 1.25315 77.0633C1.90649 78.2806 2.89305 79.5033 3.94638 80.6059C4.99971 81.7073 6.10638 82.6913 7.01305 83.4339C8.07971 84.3099 8.85305 84.8486 8.87971 84.8486C8.95971 84.9033 9.0531 84.9553 9.1331 85.0086C9.9331 85.5299 10.6399 85.9953 11.3065 86.4126C12.1199 86.9206 12.8665 87.3539 13.5865 87.7153C14.3065 88.0766 15.013 88.366 15.7597 88.5886C16.5063 88.8113 17.2931 88.9659 18.1998 89.0593C19.0931 89.1526 20.0799 89.1833 21.2399 89.1566C23.9732 88.6699 25.8664 87.7393 27.413 86.45C29.5197 84.6966 30.9731 82.2806 32.9998 79.4193C33.4398 78.786 33.9199 78.1313 34.4399 77.4566C36.0665 75.3966 37.7997 73.2993 39.613 71.1993C41.933 68.4966 44.3999 65.7913 46.9732 63.1566C49.4532 60.6299 52.0265 58.1686 54.7065 55.8379C57.3065 53.5659 59.9864 51.4206 62.7331 49.4593C65.4264 47.5419 68.1865 45.8046 70.9865 44.2993C72.7865 43.3326 74.5999 42.458 76.4399 41.6993C77.3999 41.3446 78.3464 41.0406 79.2797 40.7739C81.893 40.0299 84.3863 39.6326 86.7597 39.6072C89.1063 39.5806 91.3597 39.9179 93.493 40.6352C95.2797 41.2312 96.9865 42.0926 98.6399 43.2233C100.467 44.4713 102.213 46.0499 103.893 47.9726C105.653 49.9833 107.333 52.3633 108.973 55.1419C110.493 57.7486 111.973 60.7006 113.413 64.0086C115.413 68.6153 117.333 73.9206 119.2 79.9432C120.893 85.4006 122.533 91.446 124.16 98.1166C125.8 104.871 127.413 112.266 129.026 120.315C129.08 120.583 129.133 120.846 129.186 121.115C130.693 128.95 131.973 136.181 133.133 143.282C135 154.787 136.546 165.961 138.186 178.787C138.573 181.814 138.946 184.841 139.32 187.881C140.666 198.761 141.933 209.641 143.12 220.507C143.093 220.681 143.067 220.841 143.04 221.001C141.827 228.561 140.6 236.414 139.44 244.161C138.173 252.707 136.973 261.147 135.96 268.987C134.626 279.161 133.6 288.307 133.066 295.361C132.813 298.747 132.68 301.641 132.68 303.934C132.68 312.587 134.76 321.121 139.013 327.361C143.973 334.667 151.893 338.854 162.893 336.494C168.066 335.374 171.92 332.947 174.76 329.814C184.146 319.481 182.733 301.401 182.746 296.707C182.746 296.294 182.746 295.881 182.746 295.467C182.733 289.747 182.52 282.974 182.08 274.921C181.653 266.974 180.986 257.774 180.053 247.121C179.373 239.294 178.546 230.667 177.56 221.187C178.373 215.387 179.24 209.507 180.16 203.601C181.333 196.054 182.573 188.441 183.907 180.827C185.227 173.241 186.64 165.667 188.146 158.161C189.653 150.641 191.253 143.197 192.946 135.902C194.68 128.457 196.52 121.166 198.466 114.111C200.493 106.786 202.64 99.7139 204.907 92.9793C207.307 85.8753 209.84 79.146 212.533 72.8993C213.453 70.778 214.373 68.7099 215.333 66.7033C217.453 62.3313 219.746 58.422 222.146 54.9473C225.973 49.4233 230.093 45.0072 234.36 41.6352C238.626 38.2459 243.04 35.9099 247.4 34.5419C252.64 32.9046 257.813 32.658 262.64 33.678C267.333 34.6713 271.706 36.8646 275.48 40.1313C276.16 40.7153 276.813 41.3313 277.453 41.9833C280.506 45.1326 283.053 49.3433 285.173 54.4326C287.48 59.9366 289.293 66.4699 290.746 73.8432C292.026 80.3539 293.026 87.5166 293.826 95.1793C294.56 102.197 295.12 109.633 295.6 117.386C296.04 124.711 296.4 132.318 296.72 140.109C297.04 147.669 297.32 155.401 297.64 163.227C297.947 171.014 298.266 178.881 298.666 186.761C299.066 194.641 299.546 202.534 300.146 210.347C300.906 220.281 301.866 230.094 303.133 239.601C299.213 246.454 295.6 253.521 292.146 260.681C288.093 269.067 284.253 277.561 280.36 285.987C276.546 294.241 272.68 302.401 268.533 310.307C264.44 318.107 260.08 325.654 255.2 332.747C250.44 339.667 245.213 346.161 239.28 352.054C237.986 353.334 236.653 354.587 235.293 355.814C230.373 360.241 225.307 363.974 220.173 367.134C212.893 371.601 205.453 374.894 198.093 377.294C189.826 380.001 181.64 381.574 173.853 382.441C164.573 383.467 155.853 383.507 148.213 383.227C138.786 382.894 130.986 382.107 125.76 382.174C124.573 382.187 123.466 382.267 122.453 382.427C119.48 382.894 117.2 383.934 115.453 385.507C114.946 385.961 114.48 386.454 114.066 386.987C113.64 387.534 113.266 388.107 112.933 388.734C112.586 389.361 112.28 390.014 112.013 390.721C111.746 391.414 111.506 392.147 111.293 392.934C110.946 394.241 110.693 395.641 110.493 397.147C110.426 397.707 110.36 398.281 110.307 398.867C110.24 399.854 110.226 400.774 110.253 401.641C110.32 403.187 110.546 404.547 110.933 405.747C111.306 406.947 111.84 407.987 112.507 408.894C113.64 410.414 115.16 411.547 117.026 412.414C121.373 414.454 127.56 415.027 134.8 415.694C138.96 416.094 143.093 416.361 147.186 416.507C157.546 416.894 167.693 416.494 177.56 415.281C188.146 413.961 198.413 411.694 208.24 408.414C218.4 405.027 228.093 400.547 237.24 394.921C246.147 389.427 254.533 382.854 262.293 375.107C266.973 370.441 271.426 365.347 275.626 359.814C277.813 356.934 279.906 353.987 281.92 350.987C287.506 342.694 292.466 334.067 297.013 325.334C301.48 316.774 305.546 308.121 309.453 299.587C312 294.014 314.48 288.481 316.96 283.081C316.96 283.094 316.973 283.107 316.973 283.134C318.587 286.627 320.227 289.881 321.907 292.907C326.933 301.961 332.32 309.014 338.173 314.654C345.693 321.907 353.986 326.854 363.346 330.734C364.493 331.201 365.666 331.667 366.853 332.121C376.946 335.627 386.373 337.441 395.093 337.827C398.88 338.001 402.52 337.907 406.026 337.561C414.373 336.747 421.987 334.547 428.84 331.254C430.413 330.494 431.947 329.681 433.44 328.801C441.987 323.814 449.213 317.014 455.04 309.027C460.813 301.107 465.213 292.014 468.146 282.374C468.453 281.374 468.746 280.361 469.013 279.334C471.826 268.921 472.933 257.974 472.28 247.267Z" fill="white"/>
</svg>
