<svg width="302" height="481" viewBox="0 0 302 481" fill="none" xmlns="http://www.w3.org/2000/svg">
<path d="M90.5195 353.399C82.6261 355.537 74.2929 355.658 66.4262 353.738C61.8262 352.617 57.3996 350.802 53.2929 348.28C50.6396 346.647 48.253 344.778 46.133 342.722C40.1597 336.925 36.2928 329.626 34.4528 321.863C32.6261 314.15 32.813 305.981 34.933 298.371C36.9597 291.101 40.7461 284.343 46.2528 278.989C52.6661 272.754 60.1732 268.87 67.9466 267.134C75.5066 265.441 83.2929 265.787 90.5596 267.961C97.2929 269.993 103.573 273.603 108.773 278.663C119.56 289.17 125.68 305.905 121.547 327.555C118.907 332.953 115.506 337.567 111.6 341.386C105.546 347.296 98.2395 351.31 90.5195 353.399ZM300.519 385.008C299.253 376.131 296.973 368.648 294.413 363.808C293.2 361.499 291.92 359.787 290.666 358.817C289.706 358.078 288.546 357.634 287.266 357.433C285.986 357.231 284.586 357.272 283.133 357.502C281.68 357.73 280.173 358.149 278.68 358.701C277.187 359.251 275.72 359.938 274.333 360.705C273.36 361.247 272.413 361.831 271.547 362.435C270.68 363.039 269.88 363.665 269.173 364.293C268.48 364.919 267.866 365.55 267.373 366.162C266.88 366.775 266.507 367.371 266.28 367.931C265.267 370.453 265.493 373.29 266.213 376.717C266.947 380.251 268.2 384.418 269.133 389.524C269.826 393.298 270.347 397.582 270.347 402.508C270.347 407.524 269.773 412.199 268.733 416.495C266.56 425.503 262.306 432.837 256.853 438.126C251.079 443.727 243.959 447.037 236.519 447.605C230.133 448.091 223.506 446.554 217.306 442.706C213.92 440.602 210.653 437.81 207.626 434.279C205.12 431.348 202.946 428.336 201.106 425.246C196.28 417.186 193.613 408.586 192.64 399.45C191.706 390.539 192.386 381.119 194.24 371.194C196.013 361.819 198.827 351.995 202.347 341.726C205.68 331.994 209.64 321.861 213.933 311.331C218.013 301.281 222.386 290.87 226.8 280.101C231.04 269.697 235.32 258.961 239.373 247.894C243.333 237.081 247.08 225.961 250.4 214.521C253.653 203.294 256.493 191.774 258.706 179.947C260.84 168.547 262.386 156.881 263.16 144.921C263.52 139.281 263.719 133.561 263.719 127.801C263.719 121.121 263.373 114.667 262.706 108.44C261.28 94.9871 258.373 82.6006 254.24 71.3872C249.4 58.2139 242.853 46.6804 235.04 36.9471C226.36 26.1738 216.12 17.6272 204.866 11.5605C192.68 5.01386 179.306 1.38711 165.453 1.01378C152.346 0.653777 138.813 3.2138 125.453 8.9738C114.013 13.9071 102.693 21.1738 91.8799 30.9738C91.3466 31.4405 90.8264 31.9204 90.3064 32.4138C81.0264 41.0804 74.3195 52.0539 69.6528 64.0272C64.8795 76.3072 62.253 89.6539 61.1997 102.654C61.093 104.054 60.9864 105.467 60.9064 106.854C60.3731 119.494 61.5597 130.88 64.0663 141.614C66.9063 153.827 71.4529 165.201 77.0929 176.654C82.0262 186.667 87.7999 196.747 94.0132 207.467C99.2532 216.507 104.8 226.014 110.413 236.334C111.653 238.614 112.879 240.934 114.119 243.28C111.839 241.787 109.32 240.427 106.6 239.24C103.613 237.934 100.386 236.827 96.9861 235.947C85.9461 233.094 73.0261 232.654 60.1195 235.64C46.1728 238.88 32.2663 246.121 20.7997 258.654C12.2397 268.001 6.55968 278.391 3.39968 289.106C-0.626983 302.734 -0.56042 316.883 2.89291 330.07C6.37291 343.382 13.3062 355.713 22.9596 365.538C32.4929 375.239 44.6796 382.498 58.8262 385.843C67.6396 387.93 77.2261 388.495 87.3861 387.182C91.4661 386.657 95.4795 385.826 99.3861 384.714C112.533 380.98 124.6 374.011 134.413 364.229C143.613 355.055 150.827 343.411 155.08 329.647C155.427 328.534 155.76 327.407 156.066 326.266C159.32 314.114 160.466 302.587 160.066 291.554C159.573 278.586 156.92 266.294 152.906 254.494C149.053 243.147 143.96 232.241 138.36 221.601C133.013 211.441 127.227 201.534 121.613 191.694C116.133 182.067 110.813 172.521 106.28 162.894C101.8 153.374 98.0666 143.774 95.6799 133.961C93.3732 124.481 92.3066 114.8 93.0132 104.774C93.6399 95.7071 95.7331 86.3738 99.6398 76.6672C99.6798 76.5738 99.7066 76.4938 99.7466 76.4005C103.573 67.0005 108.84 59.0272 115.026 52.5206C121.76 45.4006 129.573 40.0272 137.733 36.4272C145.773 32.8672 154.146 31.0271 162.173 30.9471C162.773 30.9338 163.373 30.9472 163.973 30.9605C172.653 31.2272 181.6 34.1072 189.933 38.7338C198.173 43.2938 205.813 49.5605 212.04 56.6939C216.786 62.1205 220.706 68.0538 223.426 74.1338C224.426 76.3605 225.346 78.6938 226.186 81.1738C228.973 89.3605 230.827 99.0139 231.547 110.521C232.107 119.734 231.933 130.147 230.906 141.974C230.053 151.72 228.627 162.414 226.547 174.214C226.147 176.467 225.733 178.761 225.28 181.094C223.573 189.547 221.56 197.747 219.293 205.734C216.266 216.441 212.813 226.761 209.133 236.761C205.24 247.347 201.093 257.587 196.906 267.534C192.426 278.177 187.92 288.495 183.666 298.582C179.026 309.589 174.693 320.318 171.013 330.891C166.92 342.672 163.667 354.263 161.747 365.826C160.507 373.221 159.826 380.605 159.826 388.022C159.826 393.167 160.2 398.419 160.933 403.677C162.68 416.334 166.533 429.022 172.413 440.329C178.947 452.878 187.973 463.725 199.4 470.931C208.706 476.799 219.6 480.258 232.04 480.258C235.293 480.258 238.546 479.988 241.76 479.474C255.386 477.298 268.44 470.571 278.96 459.773C284.586 453.994 289.493 447.057 293.36 439.018C295.68 434.183 297.439 429.142 298.719 424.043C302.133 410.514 302.186 396.579 300.519 385.008Z" fill="white"/>
</svg>
