<svg width="466" height="281" viewBox="0 0 466 281" fill="none" xmlns="http://www.w3.org/2000/svg">
<path d="M4.90417 214.734C5.8735 215.547 6.95219 216.134 8.09486 216.574C9.23619 217.014 10.4402 217.294 11.6589 217.481C13.6815 217.801 15.7468 217.867 17.6348 217.947C18.4082 217.974 19.2282 218.014 20.0949 218.041C22.7762 218.121 25.8922 218.201 29.3642 218.267C32.7069 218.334 36.3815 218.387 40.3188 218.427C44.2561 218.467 48.4549 218.507 52.8482 218.534C59.0549 218.574 65.6495 218.587 72.4361 218.601C79.2228 218.601 86.2029 218.601 93.1829 218.587C100.515 218.561 107.845 218.534 114.952 218.494C122.059 218.454 128.941 218.401 135.375 218.334C148.392 218.227 159.575 218.081 167.062 217.934C171.494 217.841 174.631 217.747 176.087 217.667C176.554 217.641 176.848 217.614 176.957 217.587C178.88 217.121 180.114 216.134 180.816 214.761C182.167 212.107 181.556 208.014 180.087 203.387C178.616 198.774 176.288 193.614 174.201 188.841C173.644 187.561 173.103 186.321 172.601 185.107C168.8 176.001 165.815 168.814 163.48 161.654C161.943 156.947 160.69 152.254 159.672 147.027C158.656 141.801 157.876 136.027 157.291 129.201C157.077 126.707 156.89 124.067 156.726 121.267C156.46 116.734 156.284 112.771 156.204 109.245C156.058 102.858 156.22 97.9219 156.723 93.7646C157.467 87.5966 158.957 83.1419 161.285 78.2099C161.983 76.7326 162.755 75.2126 163.606 73.5913C165.448 70.0793 167.516 66.7993 169.779 63.7446C173.04 59.3419 176.71 55.414 180.699 51.958C184.69 48.5006 189 45.5153 193.548 42.9966C198.35 40.3366 203.414 38.1979 208.639 36.5779C213.864 34.9566 219.251 33.8526 224.699 33.2633C230.274 32.6593 235.912 32.5953 241.506 33.0633C247.099 33.5326 252.647 34.5353 258.043 36.0673C263.351 37.5753 268.511 39.5953 273.419 42.1233C278.333 44.6526 282.987 47.6913 287.28 51.2339C291.307 54.5539 295.027 58.3166 298.347 62.5206C301.667 66.7232 304.587 71.3673 307.04 76.4473C309.24 81.0486 311.067 86.01 312.427 91.3273C313.774 96.6433 314.68 102.317 315.054 108.343C315.12 109.461 315.173 110.587 315.213 111.73C315.347 116.454 315.147 121.147 314.667 125.761C314.067 131.507 313.04 137.147 311.747 142.601C309.893 150.414 307.467 157.854 304.867 164.721C302.28 171.601 299.533 177.907 297.04 183.454C294.387 189.334 292.027 194.347 290.44 198.267C289.16 201.454 288.387 203.921 288.387 205.521C288.387 206.414 288.534 207.227 288.76 207.961C289.427 210.147 290.8 211.614 291.107 211.921C291.68 212.494 292.44 212.934 294.4 213.267C297.334 213.761 302.907 214.027 314.48 214.134C318.96 214.187 324.334 214.214 330.787 214.227C337.254 214.227 344.8 214.227 353.64 214.214C359.573 214.201 366.094 214.187 373.254 214.161C377.52 214.161 382.013 214.147 386.747 214.134C389.653 214.121 392.44 214.121 395.12 214.121C404.334 214.134 412.187 214.201 418.92 214.241C425.667 214.294 431.267 214.321 435.96 214.267C439.987 214.227 443.334 214.121 446.16 213.907C448.987 213.694 451.28 213.387 453.173 212.921C455.08 212.454 456.6 211.841 457.84 211.041C459.093 210.227 460.08 209.227 460.947 207.987C461.427 207.307 461.853 206.481 462.213 205.561C462.573 204.627 462.88 203.601 463.107 202.507C463.32 201.401 463.48 200.241 463.534 199.041C463.6 197.841 463.573 196.614 463.44 195.387C463.347 194.441 463.187 193.494 462.973 192.574C462.747 191.654 462.467 190.747 462.107 189.881C461.747 189.014 461.32 188.174 460.813 187.401C460.32 186.614 459.733 185.881 459.08 185.227C458.56 184.707 457.773 184.241 456.747 183.827C455.72 183.427 454.44 183.067 452.973 182.747C450.84 182.294 448.28 181.934 445.387 181.641C442.48 181.361 439.24 181.147 435.747 180.987C429.84 180.734 423.227 180.641 416.334 180.641C409.44 180.641 402.28 180.734 395.294 180.827C387.294 180.947 379.507 181.067 372.613 181.081C365.733 181.094 359.747 181.001 355.307 180.667C352.707 180.481 350.654 180.214 349.267 179.841C348.787 179.707 348.4 179.574 348.094 179.414C346.88 178.814 345.827 178.214 344.934 177.601C343.987 176.947 343.2 176.294 342.547 175.601C341.907 174.921 341.413 174.201 341.04 173.454C340.6 172.561 340.333 171.601 340.213 170.587C340.093 169.561 340.12 168.467 340.254 167.281C340.507 165.027 341.174 162.441 341.987 159.401C342.094 159.014 342.2 158.614 342.307 158.201C342.947 155.854 343.534 153.521 344.067 151.214C345.96 143.121 347.24 135.334 347.96 127.867C348.68 120.401 348.84 113.245 348.507 106.415C348.08 97.9699 346.893 90.0153 345.013 82.5553C343.147 75.0939 340.587 68.1286 337.454 61.6633C333.88 54.3113 329.56 47.6059 324.627 41.5539C319.68 35.5033 314.133 30.1073 308.107 25.3726C302.013 20.5939 295.453 16.4912 288.547 13.0686C281.64 9.64723 274.39 6.90859 266.944 4.85926C259.587 2.83392 252.039 1.48328 244.438 0.813945C236.836 0.144612 229.181 0.156622 221.613 0.857956C213.883 1.57529 206.243 3.00994 198.841 5.1726C191.44 7.33394 184.276 10.2246 177.498 13.8486C170.654 17.5086 164.203 21.9193 158.299 27.0873C152.394 32.2539 147.035 38.1806 142.373 44.8726C138.229 50.8219 134.636 57.3779 131.704 64.5459C128.771 71.7139 126.496 79.4939 124.988 87.8899C123.796 94.5246 123.083 101.543 122.9 108.95C122.718 116.361 123.066 124.147 123.998 132.347C124.616 137.774 125.491 143.374 126.638 149.147C127.786 154.934 129.206 160.881 130.912 167.001C130.924 167.041 130.935 167.081 130.946 167.121C131.223 168.121 131.45 170.121 131.372 172.347C131.332 173.494 131.214 174.681 130.982 175.827C130.75 176.974 130.404 178.067 129.913 179.014C129.896 179.041 129.883 179.081 129.866 179.107C129.463 179.867 129.076 180.521 128.631 181.107C128.164 181.721 127.632 182.254 126.951 182.707C125.594 183.601 123.638 184.214 120.4 184.627C117.89 184.934 114.608 185.134 110.235 185.241C105.863 185.347 100.402 185.387 93.5322 185.374C88.4442 185.374 82.5855 185.347 75.8241 185.321C69.0615 185.281 61.3989 185.254 52.7042 185.227C49.0736 185.227 45.2628 185.214 41.2628 185.214C37.2628 185.214 33.0748 185.214 28.6868 185.214C28.6402 185.214 28.5935 185.214 28.5469 185.214C24.8402 185.227 21.4429 185.201 18.3922 185.321C15.2949 185.441 12.5562 185.694 10.2162 186.281C8.98154 186.574 7.85618 186.974 6.84818 187.481C5.84151 187.987 4.95085 188.601 4.18952 189.361C3.61885 189.934 3.11618 190.627 2.68151 191.401C2.24551 192.174 1.8762 193.041 1.56953 193.974C1.2642 194.894 1.0202 195.881 0.836198 196.907C0.650865 197.921 0.526885 198.974 0.457552 200.041C0.416219 200.694 0.393555 201.347 0.393555 202.001C0.393555 203.054 0.438854 204.041 0.525521 204.961C0.677521 206.547 0.956169 207.947 1.34017 209.174C1.7375 210.427 2.24818 211.507 2.85085 212.427C3.45218 213.347 4.14417 214.107 4.90417 214.734Z" fill="white"/>
<path d="M464.973 263.067C464.88 262.294 464.76 261.534 464.586 260.774C464.413 260.014 464.2 259.281 463.96 258.547C463.72 257.827 463.44 257.121 463.146 256.454C462.84 255.774 462.506 255.134 462.16 254.521C461.373 253.161 460.586 252.041 459.733 251.107C458.866 250.187 457.96 249.441 456.946 248.854C454.76 247.587 452.106 247.054 448.546 246.827C445 246.614 440.56 246.721 434.786 246.761C434.226 246.761 433.64 246.761 433.053 246.761C429.933 246.761 426.826 246.747 423.706 246.747C420.013 246.734 416.32 246.734 412.626 246.721C408.933 246.721 405.24 246.707 401.546 246.707C397.853 246.694 394.16 246.694 390.466 246.681C386.773 246.681 383.08 246.667 379.386 246.667C375.693 246.654 371.986 246.654 368.293 246.641C364.6 246.627 360.906 246.627 357.213 246.614C353.52 246.614 349.826 246.601 346.133 246.601C342.44 246.587 338.746 246.587 335.053 246.574C331.36 246.574 327.666 246.561 323.973 246.561C320.28 246.547 316.586 246.547 312.893 246.534C309.2 246.534 305.506 246.521 301.813 246.521C298.12 246.507 294.426 246.507 290.733 246.494C287.04 246.481 283.346 246.481 279.653 246.467C275.956 246.467 272.262 246.454 268.569 246.454C264.874 246.441 261.181 246.441 257.488 246.427C253.793 246.427 250.1 246.414 246.406 246.414C244.985 246.414 243.565 246.401 242.145 246.401C239.846 246.401 237.578 246.401 235.325 246.401C231.504 246.401 227.746 246.401 224.053 246.401C220.361 246.401 216.73 246.401 213.162 246.401C209.328 246.401 205.564 246.401 201.869 246.401C198.176 246.401 194.552 246.401 191 246.401C187.145 246.401 183.373 246.401 179.68 246.401C175.988 246.401 172.374 246.414 168.838 246.414C164.96 246.414 161.174 246.427 157.482 246.427C153.789 246.427 150.189 246.441 146.676 246.441C142.765 246.454 138.965 246.454 135.272 246.467C131.58 246.467 127.994 246.481 124.513 246.494C120.557 246.507 116.736 246.521 113.042 246.534C109.35 246.534 105.788 246.561 102.352 246.574C98.3236 246.587 94.469 246.601 90.777 246.627C87.0863 246.641 83.5583 246.667 80.1889 246.694C76.0383 246.721 72.1249 246.747 68.4356 246.787C64.7462 246.814 61.281 246.854 58.0263 246.894C53.605 246.934 49.5716 247.001 45.8902 247.054C42.2089 247.121 38.8783 247.174 35.865 247.241C30.3223 247.374 25.8489 247.521 22.2276 247.667C18.6076 247.827 15.837 248.001 13.7023 248.201C10.3063 248.507 8.51293 248.854 7.44493 249.241C6.37826 249.641 6.0356 250.081 5.54226 250.574C4.78093 251.334 4.13562 252.214 3.59695 253.161C3.05828 254.107 2.62628 255.147 2.29161 256.227C1.95694 257.321 1.72096 258.454 1.57429 259.614C1.42629 260.774 1.36898 261.961 1.39298 263.134C1.41831 264.414 1.54093 265.694 1.7476 266.934C1.9556 268.161 2.24894 269.361 2.61694 270.454C2.98627 271.561 3.42895 272.587 3.93562 273.494C4.44229 274.401 5.01295 275.174 5.63562 275.801C6.29029 276.454 7.13295 277.001 8.39962 277.454C9.66629 277.907 11.357 278.267 13.7076 278.561C15.941 278.827 18.769 279.041 22.3956 279.187C26.021 279.347 30.4463 279.454 35.8703 279.521C38.8956 279.547 42.2316 279.574 45.9129 279.587C49.5942 279.614 53.6223 279.614 58.0316 279.614C61.2903 279.627 64.7569 279.614 68.4462 279.614C72.1356 279.614 76.0476 279.601 80.1943 279.601C83.5663 279.587 87.0929 279.587 90.7849 279.574C94.4756 279.561 98.3302 279.561 102.357 279.547C105.794 279.547 109.357 279.534 113.049 279.534C116.741 279.521 120.562 279.521 124.52 279.521C128.001 279.521 131.586 279.507 135.278 279.507C138.972 279.507 142.772 279.507 146.682 279.507C150.272 279.507 153.954 279.507 157.733 279.507C158.126 279.507 158.52 279.507 158.914 279.507C162.266 279.507 165.568 279.521 168.844 279.521C172.637 279.521 176.381 279.521 180.074 279.534C183.768 279.534 187.413 279.534 191.006 279.547C194.809 279.547 198.557 279.547 202.25 279.561C205.942 279.561 209.581 279.574 213.169 279.574C216.981 279.587 220.734 279.587 224.428 279.601C228.121 279.601 231.756 279.614 235.332 279.614C239.157 279.627 242.916 279.641 246.609 279.641C250.302 279.654 253.93 279.667 257.493 279.667C261.334 279.681 265.101 279.694 268.794 279.694C272.488 279.707 276.108 279.721 279.653 279.734C283.52 279.747 287.293 279.747 290.986 279.761C294.68 279.774 298.293 279.787 301.813 279.801C305.706 279.814 309.493 279.827 313.186 279.841C316.88 279.841 320.48 279.854 323.986 279.867C327.906 279.881 331.706 279.894 335.4 279.907C339.093 279.921 342.68 279.934 346.146 279.934C350.12 279.947 353.946 279.961 357.64 279.974C361.333 279.987 364.88 279.987 368.306 280.001C372.36 280.014 376.226 280.014 379.92 280.014C383.613 280.027 387.12 280.027 390.466 280.027C394.666 280.027 398.6 280.014 402.293 280.014C405.973 280.001 409.413 279.987 412.626 279.961C417.173 279.934 421.253 279.894 424.933 279.841C428.613 279.774 431.88 279.707 434.786 279.627C441.24 279.441 445.933 279.174 449.44 278.801C452.96 278.427 455.266 277.961 456.96 277.361C458.066 276.961 458.893 276.521 459.613 276.001C460.32 275.494 460.92 274.921 461.56 274.281C462.32 273.534 462.933 272.707 463.426 271.827C463.92 270.947 464.293 270.027 464.56 269.067C464.826 268.107 464.986 267.107 465.04 266.107C465.106 265.107 465.08 264.081 464.973 263.067Z" fill="white"/>
</svg>
