<svg width="325" height="410" viewBox="0 0 325 410" fill="none" xmlns="http://www.w3.org/2000/svg">
<path d="M323.746 16.4479C323.373 14.9266 322.786 13.4146 322.039 11.9666C321.293 10.5186 320.386 9.1359 319.346 7.87323C318.32 6.61057 317.173 5.46926 315.946 4.50527C315.32 4.00927 314.68 3.55992 314.013 3.16392C313.36 2.76926 312.68 2.42924 312.013 2.15058C311.333 1.87191 310.639 1.6546 309.959 1.50793C309.279 1.36127 308.586 1.28391 307.919 1.28391C304.666 1.28391 301.186 2.83459 297.159 5.83059C294.399 7.87326 291.399 10.5812 288.026 13.9532C287.546 14.4372 287.066 14.9239 286.586 15.4106C284.212 17.8079 281.906 20.2253 279.639 22.6639C274.026 28.7133 268.733 34.8879 263.773 41.1732C258.639 47.6692 253.839 54.2853 249.386 61.0026C244.799 67.9239 240.573 74.9546 236.693 82.0773C232.719 89.3893 229.12 96.7973 225.88 104.283C222.586 111.933 219.666 119.665 217.133 127.459C214.546 135.387 212.372 143.377 210.586 151.413C208.772 159.547 207.373 167.72 206.359 175.907C205.679 181.413 205.186 186.933 204.866 192.44C202.999 192.44 201.133 192.44 199.239 192.44C195.733 192.44 192.186 192.44 188.599 192.44C184.159 192.44 179.679 192.453 175.173 192.453C170.706 192.453 166.226 192.453 161.746 192.467C157.253 192.467 152.773 192.467 148.306 192.48C143.799 192.48 139.32 192.493 134.88 192.507C131.986 192.507 129.119 192.507 126.266 192.52C124.213 192.52 122.173 192.52 120.146 192.533C119.866 188.44 119.479 184.347 118.986 180.24C118.026 172.107 116.639 163.933 114.826 155.747C114.026 152.187 113.173 148.613 112.199 145.041C111.186 140.699 110.039 136.417 108.786 132.193C106.412 124.179 103.666 116.384 100.639 108.861C97.4928 101.088 94.0391 93.6026 90.3858 86.4439C86.5591 78.9279 82.4925 71.7759 78.3191 65.0413C73.8125 57.7719 69.1726 50.9933 64.5592 44.7639C59.3326 37.6986 54.1192 31.344 49.1592 25.7986C42.8259 18.728 36.8791 12.9746 31.7858 8.73593C28.6391 6.12926 25.8259 4.09324 23.4259 2.68124C21.3726 1.47058 19.6258 0.711937 18.2525 0.443937C17.5858 0.31327 16.906 0.310612 16.1993 0.418612C15.506 0.525278 14.7862 0.742578 14.0796 1.05058C13.3596 1.35858 12.6527 1.75862 11.9327 2.22929C11.226 2.70129 10.5192 3.24393 9.82591 3.84127C8.51924 4.9706 7.25258 6.29194 6.09258 7.67727C4.93258 9.06394 3.89268 10.5146 2.99935 11.9039C2.11935 13.2932 1.39924 14.6213 0.892578 15.7613C0.399245 16.8999 0.119141 17.8519 0.119141 18.4879C0.119141 20.3799 0.906224 22.4279 2.74622 24.9559C4.13289 26.8692 6.13268 29.0586 8.86602 31.6639C9.81268 32.5773 10.8527 33.5413 11.9993 34.5639C16.3193 38.4546 20.4796 42.5039 24.4796 46.7012C29.4796 51.9586 34.2127 57.4479 38.666 63.1426C43.146 68.8612 47.3458 74.7866 51.2525 80.8973C55.1725 87.0239 58.7993 93.3386 62.1327 99.8106C65.466 106.291 68.4927 112.929 71.1993 119.704C73.9193 126.476 76.3193 133.384 78.3993 140.401C80.5193 147.545 82.2927 154.8 83.7327 162.147C85.1193 169.28 86.1993 176.493 86.9327 183.773C87.226 186.707 87.4528 189.653 87.6394 192.6C85.4261 192.613 83.2662 192.613 81.1462 192.613C76.4129 192.627 71.9191 192.64 67.7191 192.653C62.8258 192.667 58.3196 192.68 54.2796 192.693C48.9196 192.72 44.3858 192.733 40.8525 192.747C35.4791 192.773 32.4261 192.787 32.3061 192.787C30.4528 192.893 28.8396 193.307 27.4129 193.947C25.3996 194.853 23.8127 196.24 22.5993 197.92C22.066 198.653 21.6126 199.44 21.2259 200.267C20.8392 201.093 20.5193 201.96 20.266 202.853C20.0127 203.733 19.8129 204.653 19.6796 205.587C19.5462 206.507 19.4658 207.453 19.4525 208.387C19.4258 209.413 19.4661 210.427 19.5728 211.427C19.6661 212.413 19.8391 213.387 20.0525 214.32C20.2658 215.24 20.546 216.12 20.866 216.947C21.1993 217.76 21.5727 218.52 21.9993 219.187C23.2927 221.253 24.6529 222.667 27.4129 223.627C30.1196 224.56 34.1725 225.053 40.8525 225.293C44.4791 225.427 48.8929 225.467 54.2796 225.467C58.2129 225.467 62.6658 225.44 67.7191 225.4C71.7858 225.36 76.2529 225.32 81.1462 225.267C83.1596 225.24 85.2526 225.227 87.4259 225.2C87.3592 225.947 87.3061 226.693 87.2394 227.44C86.6261 234.653 85.6659 241.88 84.3592 249.08C83.0792 256.187 81.4529 263.293 79.4796 270.347C77.5462 277.293 75.2793 284.2 72.666 291.067C70.106 297.773 67.226 304.453 63.9993 311.053C60.866 317.493 57.3993 323.867 53.5993 330.147C49.906 336.293 45.8926 342.36 41.5592 348.32C37.3459 354.12 32.826 359.84 27.9993 365.44C25.586 368.253 23.106 371.04 20.5327 373.787C18.0393 376.453 15.4795 379.107 12.8395 381.72C11.6395 382.96 10.7726 384.147 10.1592 385.24C8.35924 388.44 8.71945 390.92 9.10612 392.307C9.37279 393.227 9.78581 394.293 10.3191 395.427C10.8525 396.56 11.506 397.773 12.266 398.987C13.0393 400.213 13.906 401.44 14.866 402.6C15.826 403.76 16.8661 404.867 17.9728 405.853C18.6128 406.413 19.2792 406.933 19.9592 407.4C20.6392 407.853 21.3328 408.267 22.0395 408.613C22.7595 408.947 23.4792 409.227 24.2259 409.427C24.9592 409.613 25.7193 409.733 26.466 409.747C28.4927 409.8 30.0395 409.48 32.5728 407.653C34.9461 405.933 38.1991 402.893 43.5191 397.573C44.3058 396.787 45.0927 395.987 45.866 395.173C48.626 392.333 51.3462 389.4 54.0129 386.373C59.3062 380.36 64.3861 373.973 69.2394 367.253C73.9728 360.707 78.4659 353.853 82.6926 346.72C86.8259 339.72 90.7062 332.453 94.2796 324.947C97.7996 317.587 101.013 310 103.906 302.213C106.759 294.533 109.293 286.68 111.48 278.653C113.626 270.733 115.426 262.653 116.866 254.453C118.279 246.36 119.319 238.147 119.973 229.84C120.093 228.2 120.213 226.56 120.306 224.92C122.226 224.907 124.199 224.893 126.199 224.893C129.013 224.867 131.906 224.853 134.88 224.84C139.173 224.827 143.653 224.813 148.306 224.8C152.626 224.787 157.106 224.787 161.746 224.787C166.08 224.787 170.546 224.787 175.173 224.8C179.519 224.8 183.999 224.813 188.599 224.827C192.013 224.84 195.479 224.853 199.026 224.88C200.999 224.88 203 224.893 205.013 224.907C205.026 225.12 205.039 225.333 205.052 225.56C205.626 233.8 206.586 242.027 207.946 250.213C209.293 258.333 211.026 266.413 213.133 274.427C215.226 282.36 217.693 290.24 220.506 298.027C223.306 305.707 226.44 313.307 229.946 320.8C233.386 328.187 237.186 335.453 241.306 342.613C245.359 349.64 249.733 356.56 254.439 363.347C259.039 369.987 263.959 376.507 269.186 382.88C272.066 386.387 275.039 389.853 278.093 393.267C278.893 394.147 279.68 395.027 280.48 395.893C283.186 398.853 285.72 401.547 288.146 403.773C291.453 406.773 294.573 408.867 297.733 409.413C298.479 409.547 299.239 409.587 299.999 409.533C300.759 409.48 301.519 409.333 302.293 409.08C303.053 408.827 303.839 408.467 304.626 407.987C305.413 407.52 306.213 406.933 307.026 406.213C308.159 405.227 309.319 404 310.519 402.507C310.759 402.213 310.986 401.92 311.226 401.6C312.159 400.36 312.973 399.213 313.639 398.147C314.626 396.6 315.333 395.213 315.799 393.92C316.253 392.627 316.466 391.44 316.452 390.293C316.399 387.533 315.013 385.053 312.559 382.08C310.786 379.947 308.48 377.573 305.68 374.667C305 373.947 304.332 373.24 303.652 372.52C300.639 369.307 297.746 366.093 294.999 362.88C290.133 357.187 285.666 351.48 281.573 345.787C277.173 339.667 273.2 333.56 269.613 327.507C265.76 320.987 262.36 314.52 259.346 308.133C256.093 301.253 253.306 294.467 250.933 287.84C248.333 280.627 246.226 273.6 244.493 266.8C242.599 259.307 241.172 252.093 240.119 245.253C239.012 238.12 238.319 231.4 237.906 225.16C239.866 225.173 241.852 225.2 243.852 225.213C247.759 225.253 251.719 225.293 255.773 225.347C259.613 225.387 263.519 225.44 267.506 225.48C268.079 225.493 268.639 225.493 269.199 225.507C274.266 225.573 278.733 225.613 282.626 225.52C288.199 225.413 292.626 225.04 296.066 224.107C299.373 223.213 301.759 221.8 303.373 219.6C303.839 218.96 304.239 218.267 304.586 217.48C304.919 216.707 305.2 215.853 305.413 214.92C305.64 214 305.786 212.987 305.893 211.893C305.986 210.867 306.039 209.76 306.039 208.573C306.039 208.507 306.026 208.453 306.026 208.387C306.026 207.4 305.959 206.427 305.826 205.48C305.693 204.547 305.506 203.64 305.252 202.76C304.999 201.893 304.679 201.053 304.306 200.267C303.933 199.48 303.492 198.733 302.986 198.053C301.346 195.8 299.039 194.147 296.066 193.387C295.493 193.253 294.906 193.133 294.293 193.053C293.226 192.92 289.106 192.827 282.626 192.733C278.893 192.693 274.373 192.64 269.199 192.613C265.106 192.587 260.613 192.56 255.773 192.533C252.106 192.52 248.24 192.507 244.213 192.493C242.16 192.493 240.053 192.493 237.906 192.48C238.199 188.133 238.613 183.853 239.133 179.64C240.039 172.213 241.279 165.027 242.799 158.093C244.399 150.787 246.319 143.759 248.493 136.996C250.786 129.888 253.373 123.076 256.173 116.557C259.133 109.685 262.346 103.145 265.733 96.9306C269.319 90.3319 273.119 84.1039 277.026 78.2452C281.239 71.9399 285.586 66.0599 289.946 60.6133C294.76 54.5946 299.613 49.1026 304.346 44.1333C306.253 42.1199 308.146 40.1919 310.013 38.3506C311.32 37.0719 312.599 35.8306 313.866 34.6359C315.719 32.8813 317.293 31.5039 318.599 30.3172C322.239 27.0346 323.906 25.2159 324.186 20.9826C324.279 19.4999 324.12 17.9692 323.746 16.4479Z" fill="white"/>
</svg>
