<svg width="382" height="398" viewBox="0 0 382 398" fill="none" xmlns="http://www.w3.org/2000/svg">
<path d="M380.907 52.7765C380.8 46.3245 380.6 41.0592 380.24 36.6725C379.733 30.4459 378.933 25.9912 377.693 22.4499C377.533 21.9979 377.36 21.5592 377.187 21.1352C375.133 16.1165 371.173 11.1632 365.667 7.34989C361.413 4.41123 356.24 2.15254 350.267 1.06721C347.867 0.628544 345.333 0.377865 342.693 0.353865C342.613 0.353865 340.333 0.359214 336.387 0.36988C332.893 0.379214 328.08 0.39386 322.347 0.415193C317.093 0.43386 311.08 0.459235 304.56 0.491235C298.933 0.517901 292.947 0.551232 286.773 0.588565C280.947 0.624565 274.973 0.665891 268.987 0.713891C263 0.760558 257.027 0.813883 251.2 0.87255C245.027 0.935216 239.027 1.00586 233.4 1.08453C226.853 1.1752 220.827 1.2779 215.6 1.39123C209.333 1.52857 204.227 1.6832 200.8 1.85653C198.147 1.9912 196.493 2.13788 196.12 2.29788C195.24 2.66054 194.48 3.34054 193.84 4.2592C193.2 5.17654 192.667 6.33118 192.253 7.64052C191.84 8.94852 191.533 10.4125 191.32 11.9485C191.12 13.4859 191.027 15.0939 191.027 16.6939C191.027 18.0072 191.107 19.3152 191.24 20.5712C191.373 21.8258 191.573 23.0299 191.84 24.1365C192.093 25.2432 192.427 26.2512 192.8 27.1179C193.187 27.9832 193.64 28.7059 194.133 29.2405C195.653 30.8565 197.16 31.8566 201.08 32.4579C204.147 32.9299 208.707 33.1565 215.933 33.2459C220.613 33.3032 226.427 33.3019 233.667 33.2725C238.813 33.2512 244.693 33.2152 251.413 33.1752C256.773 33.1432 262.667 33.1072 269.16 33.0752C274.653 33.0486 280.56 33.0218 286.92 33.0018C291.587 32.9872 296.48 32.9739 301.64 32.9659C302.68 32.9646 303.693 32.9632 304.68 32.9606C311.76 32.9486 317.613 32.9392 322.453 32.9392C323.587 32.9392 324.667 32.9392 325.707 32.9419C322.893 35.9032 320.107 38.8312 317.333 41.7405C311.293 48.0952 305.347 54.3392 299.533 60.4539C293.467 66.8205 287.547 73.0499 281.72 79.1606C275.653 85.5312 269.72 91.7632 263.907 97.8619C257.827 104.239 251.88 110.471 246.08 116.558C239.987 122.942 234.04 129.175 228.253 135.249C222.147 141.649 216.213 147.869 210.413 153.934C204.293 160.334 198.347 166.574 192.573 172.614C186.44 179.041 180.493 185.254 174.733 191.281C169.573 196.681 164.56 201.921 159.693 207.014C157.067 204.494 155.053 202.587 153.227 200.841C150.76 198.507 148.627 196.467 145.787 193.641C143.827 191.681 141.507 189.347 138.52 186.281C136.827 184.547 134.92 182.587 132.733 180.321C132.253 179.814 131.787 179.321 131.32 178.841C128.733 176.107 126.373 173.601 124.213 171.307C121.56 168.494 119.213 165.974 117.133 163.761C114.333 160.761 112.013 158.267 110.04 156.214C106.733 152.761 104.44 150.507 102.56 149.063C99.7333 146.89 97.8534 146.499 94.9201 146.499C93.6801 146.499 92.4402 146.646 91.2402 146.921C90.0268 147.197 88.8401 147.602 87.7201 148.121C86.5868 148.641 85.5068 149.274 84.5068 150.005C83.5068 150.734 82.5734 151.561 81.7334 152.481C81.1601 153.107 80.64 153.761 80.16 154.467C79.6933 155.161 79.2668 155.894 78.9068 156.654C78.5468 157.414 78.2401 158.201 78.0001 159.014C77.7734 159.814 77.6002 160.654 77.5068 161.507C77.1468 164.787 77.4268 167.321 79.9735 171.267C81.3735 173.441 83.4533 176.027 86.48 179.387C88.4133 181.561 90.76 184.041 93.56 186.947C95.6933 189.147 98.0934 191.601 100.8 194.334C103.027 196.587 105.453 199.027 108.093 201.681C109.947 203.534 111.893 205.481 113.96 207.547C114.44 208.027 114.92 208.507 115.413 209.001C117.747 211.334 120.187 213.761 122.747 216.307C125.093 218.641 127.533 221.081 130.08 223.601C132.347 225.854 134.707 228.201 137.133 230.601C131.6 236.387 126.28 241.947 121.173 247.294C114.907 253.841 108.973 260.054 103.32 265.961C97.0001 272.561 91.0667 278.787 85.48 284.641C79.08 291.334 73.1601 297.561 67.6667 303.334C61.1467 310.187 55.24 316.414 49.88 322.067C43.1467 329.214 37.2933 335.454 32.2133 340.921C24.9333 348.761 19.2535 355.001 14.8402 360.054C10.4268 365.094 7.27996 368.921 5.09329 371.907C1.59996 376.654 0.506836 379.267 0.506836 381.241C0.506836 381.667 0.600117 382.187 0.786784 382.801C0.97345 383.414 1.25329 384.107 1.62663 384.854C1.98663 385.601 2.43996 386.401 2.95996 387.214C3.49329 388.027 4.0935 388.867 4.7735 389.694C5.60017 390.707 6.53329 391.694 7.55996 392.614C8.58663 393.547 9.72006 394.401 10.9334 395.121C12.1334 395.854 13.4401 396.454 14.8001 396.867C16.1734 397.294 17.6134 397.521 19.1201 397.521C20.7201 397.521 22.36 396.974 26.76 393.121C29.3466 390.881 32.8801 387.494 37.9201 382.441C42.5334 377.827 48.4 371.801 55.9467 363.947C61.08 358.614 66.9867 352.441 73.8001 345.281C79.1601 339.667 85.0667 333.454 91.6133 326.574C97.08 320.814 103 314.574 109.4 307.841C114.96 301.987 120.867 295.747 127.173 289.107C132.787 283.187 138.707 276.947 144.947 270.361C149.947 265.094 155.16 259.614 160.573 253.894C162.613 255.921 164.68 257.974 166.787 260.081C169.187 262.467 171.627 264.907 174.12 267.401C176.507 269.774 178.947 272.214 181.44 274.707C183.827 277.094 186.267 279.547 188.76 282.027C191.147 284.427 193.587 286.881 196.067 289.361C198.453 291.761 200.893 294.214 203.36 296.694C205.76 299.107 208.187 301.547 210.653 304.041C213.053 306.454 215.48 308.907 217.947 311.401C218.187 311.654 218.44 311.907 218.693 312.161C221.44 314.934 223.373 317.027 225.413 318.561C227.453 320.094 229.6 321.054 232.773 321.547C233.987 321.534 235.133 321.441 236.227 321.254C237.32 321.067 238.36 320.774 239.387 320.361C240.4 319.947 241.4 319.387 242.4 318.694C243.293 318.054 244.2 317.281 245.12 316.374C245.213 316.281 245.293 316.201 245.373 316.121C246.44 315.041 247.36 313.987 248.133 312.961C248.893 311.947 249.52 310.947 250 309.974C250.48 309.001 250.827 308.041 251.04 307.107C251.253 306.161 251.333 305.227 251.307 304.307C251.213 301.601 250.093 298.947 248.2 296.161C246.52 293.667 244.213 291.081 241.453 288.267C239.253 286.014 236.773 283.614 234.08 281.014C231.907 278.907 229.6 276.654 227.2 274.241C227.04 274.067 226.88 273.907 226.707 273.734C224.187 271.201 221.76 268.747 219.427 266.387C216.893 263.827 214.467 261.387 212.133 259.041C209.587 256.467 207.16 254.027 204.84 251.707C202.267 249.121 199.84 246.681 197.533 244.374C194.933 241.774 192.507 239.334 190.213 237.054C187.707 234.547 185.373 232.227 183.2 230.067C188.08 224.934 193.12 219.627 198.307 214.174C204.053 208.121 209.973 201.894 216.107 195.441C221.853 189.387 227.8 183.147 233.907 176.721C239.68 170.654 245.613 164.414 251.707 158.014C257.493 151.934 263.427 145.695 269.52 139.302C275.32 133.211 281.253 126.978 287.333 120.597C293.147 114.495 299.08 108.27 305.147 101.897C310.96 95.7952 316.907 89.5578 322.973 83.2018C328.8 77.0898 334.747 70.8619 340.8 64.5099C342.733 62.4899 344.653 60.4672 346.613 58.4219C347.133 57.8779 347.6 57.3059 348.04 56.6979C348.067 60.9805 348.067 65.7139 348.04 70.7699C348.027 76.3419 347.987 82.2992 347.933 88.4552C347.893 94.2526 347.84 100.223 347.8 106.215C347.747 112.182 347.707 118.166 347.693 124.018C347.667 130.163 347.653 136.161 347.68 141.833C347.693 144.549 347.707 147.194 347.733 149.741C347.787 153.467 347.827 156.774 347.893 159.721C348.093 168.281 348.387 173.774 348.867 177.441C349.627 183.241 350.84 184.467 352.72 186.147C353.52 186.867 354.4 187.441 355.36 187.907C356.307 188.374 357.333 188.734 358.4 188.987C359.48 189.254 360.6 189.414 361.773 189.494C362.933 189.574 364.147 189.587 365.373 189.534C365.667 189.521 365.973 189.494 366.28 189.481C367.24 189.414 368.133 189.307 368.973 189.161C370.12 188.947 371.147 188.667 372.08 188.321C373.027 187.961 373.867 187.521 374.613 187.027C375.36 186.521 376.027 185.947 376.6 185.321C378.453 183.281 379.48 180.574 380.04 177.401C380.92 172.427 380.653 166.254 380.627 159.587C380.627 159.281 380.627 158.987 380.627 158.681C380.627 152.841 380.627 147.255 380.64 141.913C380.653 135.675 380.68 129.771 380.707 124.174C380.733 117.875 380.773 111.969 380.813 106.427C380.853 100.029 380.893 94.1125 380.92 88.6432C380.973 82.0832 381 76.1566 381.013 70.7939C381.027 63.9192 381 57.9645 380.907 52.7765Z" fill="white"/>
</svg>
