<svg width="527" height="395" viewBox="0 0 527 395" fill="none" xmlns="http://www.w3.org/2000/svg">
<path d="M526.56 334.84C525.907 327.333 522.187 322.667 517.293 317.227C516.133 315.92 514.893 314.587 513.627 313.133C512.52 311.88 511.467 310.693 510.44 309.52C507.853 306.573 505.507 303.867 503.36 301.387C500.693 298.32 498.32 295.6 496.213 293.227C493.213 289.867 490.693 287.16 488.48 285.067C486.373 283.107 484.547 281.72 482.84 280.84C480.573 279.667 478.533 279.427 476.347 280.053C475.733 280.227 475.107 280.48 474.453 280.8C473.8 281.107 473.147 281.493 472.453 281.92C471.76 282.373 471.04 282.88 470.293 283.467C469.533 284.04 468.747 284.667 467.92 285.36C467.613 285.627 467.307 285.893 466.987 286.16C466.68 286.453 466.36 286.76 466.053 287.067C465.453 287.667 464.893 288.293 464.373 288.973C463.84 289.64 463.373 290.32 462.973 291.053C462.587 291.787 462.28 292.547 462.08 293.32C461.627 295.08 462.04 297.213 463.053 299.587C463.893 301.507 465.12 303.6 466.613 305.76C468.427 308.4 470.653 311.147 473.027 313.893C474.44 315.533 475.92 317.187 477.4 318.787C475.027 318.04 472.693 317.16 470.413 316.12C467 314.6 463.707 312.733 460.56 310.533C456.187 307.48 452.067 303.773 448.293 299.373C444.84 295.36 441.653 290.733 438.8 285.507C436.16 280.653 433.787 275.253 431.733 269.28C430.013 264.293 428.52 258.92 427.267 253.12C427.147 252.507 427.053 251.893 426.96 251.293C425.88 245.093 425.093 238.707 424.573 232.173C424.067 225.733 423.787 219.16 423.693 212.493C423.6 205.893 423.68 199.213 423.88 192.467C424.08 185.76 424.387 178.987 424.76 172.213C425.147 165.387 425.6 158.56 426.04 151.76C426.507 144.813 426.96 137.893 427.373 131.08C427.8 123.963 428.16 116.956 428.4 110.083C428.653 102.759 428.747 95.6066 428.613 88.6813C428.467 81.012 428.027 73.648 427.187 66.628C426.213 58.428 424.693 50.7187 422.44 43.66C420.36 37.092 417.64 31.068 414.147 25.7213C412.933 23.8507 411.6 22.0853 410.2 20.4133C404.04 13.076 396.227 7.636 387.773 4.23866C378.893 0.669329 369.333 -0.657332 360.227 0.444001C356.8 0.869335 353.44 1.612 350.213 2.71334C344.227 4.78267 338.787 8.07331 333.84 12.32C327.813 17.4813 322.493 24.0493 317.787 31.48C313.853 37.7027 310.333 44.5093 307.16 51.6213C304.213 58.2293 301.573 65.076 299.16 71.936C296.76 78.7827 294.587 85.6293 292.6 92.224C290.76 98.2747 289.093 104.112 287.52 109.539C287.267 110.441 287.013 111.331 286.76 112.207C286.613 112.697 286.48 113.175 286.333 113.665C285.787 110.229 285.227 106.687 284.627 103.091C284.107 100.012 283.547 96.908 282.96 93.7627C281.973 88.5347 280.893 83.2533 279.667 77.9866C278.653 73.6213 277.533 69.2813 276.307 65.0093C274.12 57.5 271.56 50.2013 268.52 43.408C264.973 35.4733 260.733 28.2293 255.64 22.112C255.48 21.9266 255.333 21.7267 255.16 21.528C248.853 14.1107 241.493 8.896 233.627 5.91067C224.453 2.448 214.6 2.00931 204.84 4.71731C196.907 6.90531 189.04 11.1653 181.693 17.5213C180.773 18.304 179.893 19.1134 179 19.9627C175.107 24.0094 171.053 30.444 166.987 38.552C164.12 44.244 161.253 50.772 158.4 57.884C155.973 63.9346 153.56 70.4093 151.187 77.1773C149 83.4133 146.84 89.9013 144.733 96.5226C142.693 102.892 140.707 109.407 138.773 115.935C138.2 117.885 137.627 119.849 137.053 121.813C136.853 119.676 136.613 117.54 136.373 115.391C135.987 111.993 135.573 108.571 135.107 105.147C134.56 101.02 133.947 96.8813 133.253 92.768C132.4 87.6586 131.427 82.5773 130.307 77.5747C129.08 72.1347 127.68 66.8013 126.067 61.6253C123.987 54.9386 121.56 48.5427 118.693 42.5987C115.133 35.248 110.933 28.5733 105.907 22.8947C102.373 18.888 98.4534 15.372 94.0534 12.452C91.5468 10.9 89.04 9.58668 86.5467 8.48534C78.0933 4.76934 69.8001 3.62797 61.8934 4.3453C53.7201 5.08797 45.9868 7.80801 38.9201 11.7493C32.4401 15.3587 26.5333 19.9893 21.4133 25.0307C16.1733 30.192 11.7334 35.792 8.36007 41.152C4.1734 47.8 1.60002 54.0893 1.04002 58.7866C0.760017 61.108 0.986736 63.032 1.76007 64.4253C2.10674 65.0493 2.5201 65.6466 2.98676 66.204C3.46676 66.7746 4.0001 67.3186 4.58676 67.8093C5.17343 68.3133 5.78676 68.7907 6.45343 69.2293C7.12009 69.6667 7.81338 70.0653 8.53338 70.4226C9.32004 70.8346 10.1334 71.18 10.9601 71.484C11.7734 71.8026 12.6134 72.0546 13.4534 72.268C14.2801 72.48 15.1068 72.6386 15.9201 72.7453C16.7201 72.864 17.52 72.9173 18.28 72.9173C20.16 72.9173 21.8401 72.48 23.3601 71.7107C27.7601 69.4813 30.9467 64.4387 34.6 58.7467C37.1334 54.8053 39.8934 50.56 43.4267 46.7253C46.3467 43.5666 49.7867 40.688 54.0934 38.4987C54.8534 38.1 55.64 37.7293 56.48 37.384C59.2933 36.2026 61.9333 35.4867 64.44 35.208C68.0133 34.796 71.28 35.288 74.2667 36.5346C77.5067 37.9013 80.4268 40.1574 83.0534 43.196C86.7868 47.4814 89.9467 53.3067 92.64 60.272C94.4533 64.956 96.0668 70.144 97.5201 75.7307C99.0534 81.7013 100.413 88.124 101.6 94.8373C102.587 100.371 103.48 106.103 104.28 111.941C105.387 119.941 106.347 128.141 107.2 136.373C108.533 148.88 109.667 161.413 110.813 173.213C112.12 186.387 113.427 198.64 115.067 208.907C114.667 210.827 114.293 212.627 113.96 214.267C113.867 214.733 113.773 215.187 113.693 215.64C112.6 221.133 111.293 227.507 109.987 234.347C108.773 240.853 107.56 247.787 106.6 254.773C105.56 262.253 104.787 269.787 104.573 276.96C104.373 283.36 104.613 289.453 105.467 294.933C107.067 305.227 110.867 313.36 118.093 317.267C121.107 318.88 124.72 319.773 129.013 319.773C142.053 319.773 149.693 308.52 152.88 295.653C153.96 291.293 154.613 286.56 154.92 281.6C155.24 276.427 155.2 271.013 154.893 265.493C154.253 253.827 152.467 241.64 150.507 230.28C146.067 204.613 145.92 212.333 148.533 201.013C150 194.72 151.52 188.333 153.133 181.907C154.707 175.56 156.347 169.2 158.04 162.84C159.733 156.453 161.48 150.12 163.24 143.853C165.04 137.427 166.893 131.12 168.72 124.957C170.653 118.496 172.573 112.207 174.507 106.196C176.573 99.6533 178.627 93.444 180.64 87.632C182.933 80.972 185.147 74.8547 187.24 69.4413C188.853 65.3013 190.373 61.56 191.813 58.3093C192.747 56.212 193.733 54.196 194.773 52.2987C197.107 48.0387 199.707 44.3107 202.493 41.352C205.747 37.9013 209.293 35.4866 212.973 34.492C216.093 33.656 219.307 33.8147 222.573 35.2213C225.453 36.468 228.36 38.6707 231.267 41.988C231.333 42.0813 231.413 42.1613 231.48 42.2533C235.373 46.7786 238.613 52.6293 241.36 59.2107C243.987 65.5 246.173 72.44 248 79.5387C249.52 85.4173 250.8 91.388 251.907 97.1733C253.44 105.133 254.64 112.724 255.693 119.185C255.787 119.729 255.867 120.26 255.96 120.777C257.667 131.253 259.387 141.333 260.933 150.627C263.28 164.76 265.24 177.053 266.12 185.987C265.56 188.093 265.04 190.147 264.507 192.16C262.28 200.787 260.333 208.627 258.667 215.813C256.587 224.76 254.933 232.653 253.707 239.707C251.387 252.773 250.467 262.867 250.787 271.107C251.093 278.893 252.48 285.013 254.84 290.48C257.067 295.613 260.027 299.84 263.413 303.107C277.893 317.013 300.627 313.8 306.147 287.347C307.453 281.107 307.88 273.893 307.72 266.12C307.6 259.8 307.08 253.093 306.347 246.227C305.32 236.72 303.84 226.893 302.36 217.28C297.053 183.08 297.547 189.347 300.04 180.24C301.653 174.32 303.347 168.147 305.067 161.693C305.187 161.28 305.307 160.853 305.413 160.427C307.16 153.92 308.947 147.267 310.76 140.573C312.547 133.96 314.387 127.305 316.253 120.724C318.147 114.077 320.093 107.509 322.08 101.127C324.12 94.5853 326.213 88.2427 328.373 82.232C330.667 75.8107 333.027 69.76 335.453 64.24C338.16 58.096 340.973 52.6026 343.867 47.9586C346.293 44.084 348.787 40.7946 351.36 38.22C352.213 37.3706 353.093 36.6014 354.013 35.8987C357.013 33.616 360.413 32.0893 363.96 31.4267C368.013 30.6573 372.253 31.0413 376.307 32.7667C379.867 34.2667 383.267 36.8133 386.24 40.5027C388.6 43.4213 390.693 47.0706 392.387 51.4893C392.573 51.9933 392.76 52.5106 392.947 53.028C394.693 58.056 395.867 63.816 396.613 70.184C397.28 76.0626 397.6 82.4307 397.653 89.2387C397.693 95.5147 397.52 102.135 397.2 109.048C396.907 115.549 396.507 122.317 396.027 129.253C395.587 135.947 395.08 142.787 394.6 149.773C394.133 156.587 393.68 163.533 393.307 170.533C392.92 177.507 392.613 184.533 392.44 191.573C392.267 198.707 392.227 205.827 392.373 212.92C392.533 220.2 392.907 227.44 393.547 234.573C394.2 242.027 395.16 249.347 396.493 256.52C397.893 264.093 399.72 271.48 402.053 278.587C404.533 286.147 407.573 293.4 411.293 300.24C415.173 307.373 419.787 314.067 425.267 320.187C430.6 326.173 436.76 331.653 443.84 336.493C448.293 339.533 453.107 342.333 458.32 344.853C459.2 345.28 460.08 345.68 460.973 346.067C467.627 348.92 474.613 350.547 481.707 351.173C481.493 351.413 481.267 351.667 481.067 351.893C478.32 354.947 475.92 357.627 473.813 360.013C471.453 362.707 469.48 365.027 467.88 367.08C466.107 369.32 464.787 371.227 463.853 372.92C461.707 376.84 461.627 379.68 463.107 382.987C463.293 383.4 463.507 383.827 463.747 384.227C463.973 384.64 464.227 385.04 464.507 385.44C464.773 385.827 465.067 386.213 465.373 386.6C465.68 386.987 466 387.36 466.347 387.733C467.227 388.68 468.2 389.573 469.227 390.373C470.267 391.173 471.333 391.867 472.4 392.453C473.467 393.04 474.547 393.507 475.587 393.827C476.6 394.133 477.587 394.307 478.48 394.307C479.933 394.307 481.413 393.933 482.907 393.227C484.827 392.32 486.827 390.88 488.947 388.947C491.507 386.64 494.28 383.653 497.373 380.133C499.28 377.947 501.32 375.56 503.533 373C503.8 372.667 504.08 372.347 504.373 372.027C506.947 369.04 509.253 366.44 511.347 364.107C514.04 361.08 516.347 358.52 518.267 356.253C524.24 349.227 526.653 344.867 526.653 337.213C526.653 336.4 526.613 335.6 526.56 334.84Z" fill="white"/>
</svg>
