<svg width="406" height="414" viewBox="0 0 406 414" fill="none" xmlns="http://www.w3.org/2000/svg">
<path d="M279.107 193.112C282.814 196.638 286.214 200.382 289.307 204.306C296.08 212.883 301.4 222.33 305.2 232.28C307.8 239.075 309.694 246.103 310.854 253.25C311.427 256.73 311.814 260.239 312.04 263.763C312.72 274.454 311.787 285.279 309.2 295.863C307.147 304.234 304.053 312.452 299.893 320.334C298.947 322.387 297.893 324.442 296.76 326.488C292.067 334.966 285.84 343.286 278.44 350.683C277.974 351.159 277.494 351.631 277 352.098C273.627 355.362 270 358.431 266.187 361.239C262.454 363.983 257.4 367.354 250.88 370.538C242.947 374.404 232.827 377.987 220.214 379.824C214.627 380.638 208.56 381.114 201.974 381.114C197.44 381.114 192.747 380.736 187.987 379.988C177.84 378.394 167.36 375.103 157.28 370.162C147.787 365.514 138.667 359.4 130.48 351.85C129.507 350.95 128.547 350.036 127.6 349.096C121.08 342.615 115.254 335.16 110.467 326.762C105.374 317.832 101.44 307.832 99.0802 296.774C97.5069 289.374 96.627 281.505 96.5737 273.165C96.5604 270.193 96.6804 267.226 96.907 264.267C97.7204 253.518 100.12 242.911 104.107 232.806C105.934 228.203 108.067 223.703 110.534 219.344C113.36 214.336 116.627 209.512 120.32 204.924C126.92 196.726 134.88 189.284 144.174 182.891C146.374 181.374 148.654 179.914 151.014 178.519C157.454 174.703 164.174 171.633 171.067 169.293C178.147 166.885 185.414 165.255 192.72 164.382C193.88 164.243 195.053 164.127 196.227 164.027C199.04 164.226 201.84 164.331 204.654 164.339C207.854 164.347 211.04 164.23 214.227 163.991C215.32 164.082 216.414 164.187 217.507 164.312C217.574 164.319 217.627 164.327 217.693 164.334C226.867 165.394 235.893 167.64 244.56 171.046C251.96 173.96 259.094 177.726 265.8 182.321C270.467 185.518 274.92 189.115 279.107 193.112ZM405.64 12.0938C405.52 11.0672 405.213 10.1071 404.693 9.21376C404.16 8.32043 403.414 7.50715 402.387 6.73381C400.64 5.42715 397.613 4.44043 393.693 3.88043C388.987 3.18709 383 3.12045 376.4 3.84045C369.254 4.62712 361.387 6.36048 353.693 9.26715C347.36 11.6671 341.147 14.8539 335.52 18.9872C335.387 19.1072 335.267 19.2271 335.147 19.3471C328.307 26.0271 321.894 34.2405 315.52 43.1738C310.36 50.4271 305.24 58.1605 299.947 65.9605C295 73.2272 289.92 80.5472 284.52 87.5872C279.28 94.4272 273.747 100.987 267.774 106.974C261.934 112.827 255.667 118.12 248.827 122.574C247.2 123.64 245.52 124.654 243.827 125.627C238.627 128.56 232.947 130.92 227.493 132.68C225.92 133.187 224.374 133.654 222.854 134.054C217.027 133.241 211.08 132.8 205.04 132.8C204.974 132.8 204.907 132.8 204.84 132.8C199.28 132.814 193.667 133.2 188.054 133.947C186.067 133.467 184.094 132.907 182.187 132.294C174.307 129.774 167.107 126.214 160.414 121.827C153.774 117.454 147.627 112.254 141.84 106.427C135.934 100.467 130.387 93.8538 125.04 86.7605C119.894 79.9472 114.92 72.6938 109.974 65.2005C108.16 62.4671 106.36 59.6938 104.547 56.8938C101.174 51.6805 97.9602 46.7604 94.7469 42.1471C88.4269 33.0538 82.1602 25.2005 74.9336 18.8671C66.8269 11.7471 57.4937 6.54709 45.507 3.61376C40.0137 2.28043 33.9602 1.42709 27.2002 1.08043C24.4002 0.947095 21.4803 0.893814 18.4269 0.933814C14.4669 1.04048 11.9202 1.04048 9.66691 1.66715C8.01358 2.12048 6.50691 2.92045 4.73358 4.37379C3.76024 5.16045 3.02691 6.08053 2.46691 7.05387C1.90691 8.04053 1.5336 9.08053 1.2936 10.1205C1.04027 11.1605 0.920191 12.2005 0.880191 13.1605C0.826857 14.1338 0.866883 15.0272 0.906883 15.7872C0.97355 16.7205 1.06694 17.4405 1.0936 17.8539C1.18694 19.0672 1.30691 20.1738 1.46691 21.2005C1.74691 22.9471 2.1336 24.4271 2.62694 25.7071C3.1336 27.0271 3.76019 28.1205 4.48019 29.0272C5.20019 29.9338 6.01358 30.6538 6.93358 31.2138C8.34691 32.0938 9.98686 32.6139 11.8135 32.9205C15.1469 33.4939 19.1202 33.3739 23.5336 33.4539C27.8536 33.5472 32.6004 33.8271 37.5737 35.1738C42.6937 36.5471 48.067 39.0405 53.507 43.5738C54.6537 44.5471 55.8135 45.5871 56.9601 46.7471C60.4935 50.2804 64.0802 55.0405 67.8802 60.6272C72.3469 67.2138 77.1337 74.9338 82.507 83.1738C87.4537 90.7604 92.9068 98.7739 99.0935 106.721C104.933 114.227 111.427 121.667 118.774 128.614C126.134 135.6 134.347 142.084 143.6 147.663C141.84 148.534 140.107 149.443 138.374 150.387C134.387 152.566 130.467 154.939 126.667 157.499C120.8 161.438 115.187 165.812 109.907 170.619C104.934 175.138 100.254 180.038 95.9203 185.288C88.1736 194.687 81.5336 205.226 76.4002 216.822C75.7736 218.248 75.1736 219.697 74.587 221.154C69.6003 233.606 66.2936 247.204 65.1336 261.855C64.8269 265.74 64.6669 269.698 64.6669 273.727C64.6669 283.979 65.747 293.879 67.7737 303.358C70.787 317.446 75.9069 330.594 82.7336 342.547C88.9202 353.4 96.5069 363.274 105.2 371.965C106.374 373.131 107.56 374.27 108.774 375.394C119 384.927 130.587 392.898 143.107 399.024C155.627 405.158 169.08 409.448 183 411.598C189.787 412.647 196.694 413.188 203.654 413.188C210.827 413.188 217.907 412.61 224.814 411.51C235.467 409.818 245.747 406.879 255.507 402.839C258.614 401.552 261.654 400.151 264.654 398.647C277.2 392.34 288.72 384.173 298.814 374.515C299.587 373.779 300.347 373.035 301.093 372.28C310.187 363.194 318.027 352.871 324.36 341.616C331.027 329.755 336.013 316.854 338.96 303.252C340.96 293.978 342.027 284.381 342.027 274.565C342.027 270.338 341.827 266.144 341.454 261.988C340.2 248.136 336.907 234.739 331.88 222.15C326.787 209.396 319.92 197.476 311.6 186.756C308.48 182.73 305.16 178.867 301.64 175.2C295.694 168.996 289.2 163.343 282.267 158.321C278.574 155.641 274.747 153.141 270.8 150.838C269.254 149.934 267.68 149.063 266.107 148.221C268.667 146.77 271.187 145.226 273.654 143.58C279.84 138.81 285.36 134.094 290.347 129.454C298.387 121.947 305 114.64 310.6 107.627C317.174 99.3872 322.347 91.5605 326.827 84.2671C332.067 75.7605 336.36 68.0005 340.827 61.1872C345.107 54.6805 349.52 49.0538 355.067 44.5071C355.2 44.4005 355.334 44.2939 355.467 44.1872C359.707 40.7739 363.76 38.5471 367.587 37.0671C372.174 35.3071 376.427 34.6404 380.334 34.3471C384.654 34.0271 388.52 34.1738 391.893 33.8005C394.973 33.4805 397.64 32.7205 399.84 30.8272C400.787 30.0005 401.493 29.1605 402.027 28.2938C402.56 27.4272 402.934 26.5471 403.24 25.6005C403.534 24.6538 403.76 23.6671 404.014 22.6005C404.12 22.1205 404.24 21.6138 404.374 21.0938C404.52 20.5205 404.667 19.9605 404.787 19.4272C405.134 18.0005 405.414 16.6938 405.574 15.4671C405.734 14.2538 405.774 13.1338 405.64 12.0938Z" fill="white"/>
</svg>
