<svg width="532" height="374" viewBox="0 0 532 374" fill="none" xmlns="http://www.w3.org/2000/svg">
<path d="M439.069 134.587C439.585 134 440.113 133.44 440.652 132.893C443.822 129.733 447.264 127.707 450.644 126.747C454.992 125.52 459.238 126.067 462.676 128.253C463.529 128.8 464.334 129.44 465.077 130.187C466.344 131.453 467.413 132.973 468.316 134.68C470.105 138.053 471.225 142.16 471.88 146.48C472.441 150.2 472.66 154.08 472.66 157.787C472.66 158.84 472.642 159.92 472.608 161.013C472.456 165.893 471.961 171.013 471.149 176.307C470.38 181.333 469.325 186.507 467.998 191.8C466.733 196.84 465.221 201.987 463.48 207.173C461.802 212.187 459.909 217.24 457.82 222.32C455.784 227.253 453.564 232.2 451.165 237.107C448.809 241.947 446.284 246.747 443.602 251.493C440.948 256.187 438.14 260.84 435.19 265.387C434.105 267.053 432.996 268.72 431.873 270.36C430.736 266.853 429.729 263.28 428.846 259.653C427.677 254.84 426.722 249.933 425.949 244.947C424.772 237.347 424.02 229.547 423.592 221.64C423.169 213.773 423.064 205.8 423.178 197.773C423.293 189.733 423.625 181.64 424.08 173.56C424.328 169.147 424.612 164.733 424.916 160.333C427.942 152.387 432.612 141.88 439.069 134.587ZM530.948 340.76C530.824 339.413 530.649 338.013 530.426 336.613C530.224 335.333 529.981 334.053 529.705 332.84C529.43 331.613 529.121 330.453 528.785 329.4C528.449 328.347 528.085 327.387 527.7 326.6C527.314 325.813 526.908 325.173 526.484 324.76C524.848 323.12 522.724 322.587 519.829 322.493C518.013 322.427 515.897 322.533 513.4 322.667C511.892 322.733 510.396 322.787 508.909 322.813C505.201 322.88 501.562 322.813 498.004 322.56C494.314 322.307 490.713 321.88 487.205 321.24C483.612 320.587 480.117 319.72 476.734 318.613C473.342 317.507 470.062 316.16 466.904 314.547C463.825 312.96 460.862 311.133 458.026 309.013C454.717 306.56 451.58 303.707 448.629 300.44C449.384 299.48 450.136 298.507 450.877 297.52C454.554 292.653 458.064 287.64 461.398 282.547C464.745 277.427 467.917 272.227 470.901 266.947C473.92 261.613 476.746 256.213 479.377 250.773C482.062 245.227 484.54 239.653 486.802 234.067C489.138 228.32 491.244 222.56 493.109 216.84C495.061 210.867 496.752 204.933 498.166 199.093C499.676 192.853 500.869 186.72 501.738 180.747C502.692 174.2 503.252 167.84 503.4 161.733C503.569 154.747 503.2 148.107 502.262 141.907C501.09 134.173 499.029 127.147 496.032 121.027C495.153 119.24 494.2 117.52 493.16 115.893C489.222 110.173 484.512 105.692 479.345 102.372C470.694 96.8105 460.76 94.5172 451.002 95.2026C445.758 95.5706 440.568 96.7985 435.656 98.8399C433.256 99.8372 430.924 101.027 428.685 102.405C428.728 101.193 428.776 99.9746 428.808 98.7746C429.052 89.6292 428.985 80.8279 428.416 72.4959C427.732 62.4999 426.324 53.1786 423.856 44.7519C420.672 33.8826 415.728 24.4999 408.302 17.0746C408.268 17.0399 408.233 17.0066 408.198 16.9719C400.444 9.25856 390.16 3.67591 379.02 1.42125C368.089 -0.78942 356.337 0.209233 345.344 5.54123C339.948 8.1599 334.734 11.8173 329.892 16.6599C326.877 19.6746 324.086 23.0146 321.481 26.5972C316.205 33.8559 311.708 42.1412 307.786 50.9345C304.25 58.8599 301.177 67.1905 298.405 75.5345C295.676 83.7492 293.238 91.9719 290.941 99.8399C289.94 103.268 288.964 106.632 288.002 109.893C287.64 111.124 287.254 112.437 286.853 113.813C286.081 108.905 285.306 104.119 284.512 99.4585C283.797 95.2732 283.066 91.1919 282.306 87.2172C281.33 82.1105 280.305 77.1839 279.205 72.4466C277.897 66.8159 276.481 61.4546 274.914 56.3826C272.318 47.9812 269.305 40.3705 265.664 33.6479C262.981 28.6932 259.957 24.2186 256.509 20.2612C253.608 16.9319 250.442 14.1399 247.098 11.8399C238.568 5.9692 228.872 3.32121 219.41 3.24787C212.489 3.19454 205.694 4.51725 199.573 6.96259C197.014 7.98392 194.54 9.21188 192.142 10.6199C185.036 14.7945 178.632 20.5839 172.862 27.5106C168.073 33.2586 163.721 39.7866 159.772 46.8293C156.221 53.1626 152.997 59.9106 150.069 66.8719C147.27 73.5252 144.742 80.3719 142.464 87.2439C140.178 94.1359 138.141 101.051 136.33 107.813C136.229 108.195 136.13 108.572 136.03 108.952C136.028 108.937 136.026 108.921 136.025 108.905C135.64 105.916 135.226 102.912 134.778 99.9039C134.217 96.1412 133.601 92.3746 132.918 88.6266C132.358 85.5572 131.752 82.5012 131.094 79.4719C129.726 73.1612 128.132 66.9665 126.25 61.0065C124.538 55.5839 122.589 50.3545 120.357 45.4119C117.845 39.8532 114.974 34.6585 111.681 29.9505C107.938 24.5999 103.649 19.8839 98.7158 15.9865C94.8665 12.9465 90.6305 10.3999 85.9518 8.44924C84.4171 7.80924 82.8692 7.25457 81.3118 6.77724C74.9438 4.82524 68.4225 4.21721 61.9785 4.78921C55.8332 5.33455 49.7585 6.94923 43.9571 9.50256C40.8625 10.8652 37.8451 12.4919 34.9358 14.3639C32.5158 15.9212 30.3291 17.5266 28.3318 19.1599C23.3558 23.2266 19.5851 27.4599 16.5238 31.5306C13.5918 35.4279 11.3051 39.1746 9.2198 42.4799C8.76246 43.2039 8.28781 43.9479 7.80515 44.7065C5.09315 48.9745 2.15446 53.7199 1.05313 57.9692C0.362464 60.6386 0.394475 63.1132 1.66514 65.1519C2.03048 65.7386 2.51447 66.3199 3.0918 66.8865C3.66914 67.4532 4.33982 68.0066 5.07582 68.5386C5.81182 69.0692 6.61313 69.5785 7.4558 70.0585C8.29713 70.5372 9.17982 70.9866 10.0745 71.3959C10.9518 71.7972 11.8411 72.1626 12.7185 72.4826C13.5958 72.8026 14.4611 73.0772 15.2905 73.2999C16.1198 73.5226 16.9118 73.6932 17.6425 73.8026C18.3732 73.9119 19.0425 73.9612 19.6251 73.9425C22.2091 73.8572 24.3985 72.9212 26.3598 71.3826C29.4011 68.9972 31.8932 65.1625 34.4425 60.7919C34.7385 60.2839 35.0345 59.7692 35.3331 59.2492C37.0878 56.1906 39.0478 53.3065 41.1638 50.6759C43.4825 47.7932 45.9905 45.2159 48.6278 43.0466C51.1025 41.0092 53.6905 39.3306 56.3425 38.0972C59.1518 36.7906 62.0318 35.9839 64.9238 35.7759C67.5278 35.5892 70.1411 35.8892 72.7198 36.7479C74.9225 37.4812 77.1011 38.6199 79.2278 40.2159C80.2678 40.9972 81.2958 41.8852 82.3078 42.8879C84.1678 44.8932 85.8745 47.1426 87.4518 49.5986C89.9918 53.5493 92.1891 58.0546 94.1051 63.0319C95.8705 67.6213 97.4038 72.6025 98.7438 77.9252C100.808 86.1145 102.428 95.0932 103.786 104.619C105.173 114.333 106.286 124.627 107.325 135.227C108.689 149.147 109.922 163.587 111.464 178C112.632 188.92 113.977 199.813 115.692 210.427C114.324 217.787 113.108 224.387 112.03 230.32C110.589 238.267 109.397 245 108.418 250.773C106.613 261.4 105.534 268.693 104.966 274.027C103.89 284.12 104.642 287.173 105.753 292.453C106.032 293.627 106.338 294.773 106.668 295.88C109.19 304.413 113.121 310.907 117.688 315.12C129.685 326.2 146.288 321.747 152.873 297.093C153.806 293.587 154.537 289.693 155.021 285.373C155.165 283.867 155.285 282.387 155.381 280.933C155.806 274.48 155.765 268.48 155.357 262.413C154.95 256.36 154.176 250.24 153.128 243.6C152.25 238.027 151.181 232.067 149.976 225.44C149.086 220.56 148.126 215.32 147.113 209.6C147.932 204.88 148.769 200.12 149.626 195.347C150.834 188.613 152.084 181.84 153.382 175.093C154.684 168.32 156.036 161.56 157.444 154.893C158.846 148.24 160.306 141.653 161.83 135.213C163.384 128.64 165.004 122.213 166.698 115.987C168.473 109.456 170.33 103.148 172.28 97.1252C174.358 90.6999 176.542 84.6012 178.842 78.9119C181.348 72.7119 183.992 66.9999 186.788 61.8852C189.87 56.2452 193.138 51.3332 196.61 47.2906C200.182 43.1346 203.97 39.8999 207.996 37.7466C211.522 35.8599 215.232 34.8012 219.138 34.6799C219.389 34.6719 219.64 34.6653 219.892 34.6653C223.477 34.6639 226.653 35.5959 229.514 37.4772C233.996 40.4226 237.702 45.7146 240.976 53.4946C243.308 59.0412 245.421 65.8519 247.438 73.9719C248.845 79.6332 250.206 85.9346 251.562 92.8852C252.642 98.4199 253.721 104.363 254.817 110.733C256.27 119.173 257.757 128.36 259.326 138.307C261.604 152.747 264.056 168.787 266.833 186.493H266.834C265.993 189.733 265.158 192.973 264.346 196.173C261.538 207.24 258.941 217.933 256.805 227.453C255.05 235.293 253.606 242.333 252.617 248.147C251.558 254.747 251.084 260.747 251.084 266.187C251.085 275.68 252.541 283.48 254.958 289.787C259.078 300.533 265.973 306.947 273.132 310.053C280.48 313.253 288.105 312.96 293.293 310.307C302.121 305.787 305.422 294.88 306.777 285.093C307.632 278.92 307.858 272.027 307.665 264.773C307.498 258.52 307.02 252.013 306.361 245.453C305.6 237.867 304.6 230.227 303.566 222.893C302.822 217.613 302.064 212.507 301.365 207.68C300.242 199.933 299.276 192.92 298.789 187.227C299.426 184.827 300.056 182.467 300.676 180.147C302.889 171.88 305.008 164.067 307.153 156.307C309.321 148.467 311.517 140.667 313.872 132.453C316.025 124.933 318.314 117.08 320.83 108.547C321.621 105.865 322.43 103.125 323.27 100.3C324.9 94.9519 326.35 90.0265 327.832 85.3145C330.197 77.7892 332.644 70.8092 336.025 63.5372C337.909 59.4852 340.082 55.3426 342.696 50.9639C344.078 48.7239 345.406 46.7239 346.694 44.9399C351.088 38.8479 354.986 35.2839 358.834 33.3746C363.33 31.1412 367.757 31.1679 372.818 32.0612C373.586 32.1959 374.368 32.3505 375.166 32.5199C379.776 33.5025 383.502 35.6439 386.498 38.7892C389.982 42.4452 392.473 47.4639 394.206 53.6052C395.894 59.5839 396.864 66.6252 397.326 74.5172C397.744 81.6372 397.75 89.4452 397.502 97.7839C397.273 105.449 396.83 113.56 396.294 122C395.785 129.987 395.193 138.267 394.621 146.733C394.065 154.973 393.526 163.4 393.104 171.893C392.682 180.36 392.376 188.907 392.277 197.44C392.176 206.147 392.292 214.84 392.726 223.4C393.182 232.347 393.985 241.16 395.252 249.72C396.544 258.467 398.321 266.947 400.704 275.053C403.094 283.173 406.1 290.893 409.834 298.107C408.249 299.813 406.645 301.493 405.018 303.12C401.221 306.933 397.312 310.533 393.305 313.907C389.217 317.347 385.028 320.533 380.75 323.427C376.38 326.4 371.918 329.067 367.38 331.4C362.757 333.76 358.054 335.787 353.289 337.413C348.733 338.96 344.118 340.147 339.461 340.933C334.59 341.76 329.673 342.147 324.722 342.067C322.485 342.027 320.241 341.893 317.992 341.653C316.514 341.493 315.204 341.333 313.986 341.253C311.284 341.093 309.049 341.36 306.521 343.053C305.858 343.493 305.224 344.013 304.621 344.587C304.018 345.16 303.448 345.8 302.912 346.493C302.376 347.173 301.873 347.92 301.41 348.68C300.946 349.453 300.521 350.253 300.137 351.08C299.642 352.147 299.217 353.24 298.865 354.333C298.514 355.44 298.237 356.547 298.041 357.64C297.845 358.733 297.729 359.8 297.702 360.813C297.676 361.84 297.736 362.813 297.89 363.707C298.298 366.067 299.87 367.92 302.272 369.347C307.254 372.28 315.818 373.347 325.041 373.24C331.561 373.16 338.406 372.493 344.55 371.48C348.212 370.867 351.624 370.147 354.568 369.347C357.724 368.427 360.842 367.4 363.926 366.267C369.909 364.053 375.754 361.453 381.448 358.507C387.028 355.613 392.465 352.373 397.748 348.84C402.913 345.373 407.932 341.64 412.794 337.64C417.558 333.72 422.17 329.573 426.625 325.213C427.082 324.76 427.533 324.307 427.988 323.853C431.688 327.667 435.586 331.08 439.665 334.12C443.788 337.2 448.094 339.88 452.566 342.2C457.025 344.507 461.646 346.453 466.413 348.067C471.072 349.64 475.869 350.893 480.788 351.84C485.546 352.747 490.417 353.387 495.388 353.76C500.028 354.107 504.749 354.227 509.546 354.133C509.72 354.133 509.886 354.12 510.056 354.12C516.754 353.893 521.464 353.493 524.716 352.733C527.712 352.027 529.474 351.013 530.42 349.533C530.681 349.12 530.869 348.453 530.988 347.6C531.106 346.76 531.157 345.72 531.149 344.547C531.14 343.387 531.069 342.107 530.948 340.76Z" fill="white"/>
</svg>
